<svg width="220" height="121" viewBox="0 0 220 121" fill="none" xmlns="http://www.w3.org/2000/svg">
<path fill-rule="evenodd" clip-rule="evenodd" d="M107.609 12.2964C108.165 12.2141 108.725 12.1698 109.286 12.164C109.827 12.1652 110.384 12.2136 110.981 12.2977C111.636 10.936 113.226 8.38956 114.362 6.91699L118.123 8.41503C116.512 9.98568 115.162 11.9028 114.58 12.8531C116.14 13.1996 117.918 13.6531 119.446 14.4798C120.852 15.2403 122.771 16.4568 122.783 18.6988C122.788 19.2338 122.48 19.9089 122.35 20.0631C122.238 20.9943 121.776 21.5051 121.067 22.0044H97.5246C96.8161 21.5051 96.3517 20.9943 96.2416 20.0631C96.1114 19.9089 95.8047 19.2338 95.8072 18.6988C95.8197 16.4568 97.7387 15.2403 99.1457 14.4798C100.674 13.6544 102.45 13.1996 104.011 12.8531C103.428 11.9028 102.079 9.98568 100.468 8.41503L104.229 6.91699C105.365 8.38828 106.954 10.9347 107.609 12.2964ZM138.726 109.176C141.453 110.507 146.794 112.061 150.608 111.951C154.535 111.784 157.422 110.286 157.914 107.458C157.967 105.793 157.967 103.797 157.967 103.241C158.513 104.462 159.768 106.181 161.892 107.291C162.11 109.123 163.584 110.674 165.327 111.453C168.979 113.172 172.084 112.784 174.158 113.283C174.158 113.061 174.048 112.838 174.158 112.618C175.192 112.674 177.483 112.674 178.737 111.12C180.697 111.176 182.933 110.842 183.696 110.344C183.588 109.679 183.642 109.845 183.478 109.068C184.842 108.902 186.04 108.512 186.531 108.181C189.963 110.012 195.47 112.396 199.123 113.395C208.388 115.725 218.364 111.344 220 104.353C217.548 105.463 212.915 105.63 210.078 104.021C213.785 102.911 217.712 98.6389 217.548 93.6467C214.768 96.1982 210.024 97.3638 204.573 96.6989C200.485 96.1435 196.233 94.4798 193.399 92.7041C196.778 91.1513 199.722 89.4316 201.631 86.047C200.649 85.9922 199.176 85.6037 198.032 85.7145C201.193 84.2164 207.028 80.0573 207.79 75.3963C206.536 75.7849 204.956 75.7288 203.483 75.4524C205.499 73.455 206.482 68.6297 206.807 65.4667C204.847 66.5202 200.213 65.4667 198.032 65.8005C198.25 64.747 198.741 62.0847 198.414 60.3089C197.216 61.2503 194.708 62.1394 192.637 62.9713C191.711 63.3598 190.403 64.2464 189.584 65.1342C189.434 64.9714 189.27 64.8226 189.094 64.6897L188.332 65.1342C188.332 62.9713 187.894 60.5866 187.46 58.644C188.059 55.4823 188.222 53.2646 186.697 51.1563C185.005 51.434 183.861 52.099 182.553 52.9869C182.335 52.4875 182.007 51.7118 181.626 51.2124C181.027 51.2672 179.99 51.5996 179.446 51.9882C179.446 50.7678 179.174 49.0481 178.519 47.8278C178.519 47.8278 178.74 47.5501 177.811 48.0494C177.429 45.8304 175.523 43.3897 174.813 41.0611C174.05 41.8369 173.561 43.8343 172.796 44.2776C172.525 41.67 171.106 39.1746 170.836 37.1224C170.618 35.6244 170.29 33.4614 170.618 32.6843C169.799 33.4614 168.163 35.0142 167.237 35.6244C167.237 32.962 167.129 29.3558 165.765 25.5279C161.676 27.803 157.318 29.8003 153.501 32.6283C153.665 31.0742 153.555 29.6322 153.009 28.7456C146.96 32.1289 144.124 34.5148 142.762 38.5083C141.836 37.0103 141.072 35.5135 140.31 33.9594C138.51 36.4001 137.365 38.8956 136.493 41.3375L138.726 109.176ZM77.5122 46.1068C77.0741 44.7328 76.4889 43.412 75.7672 42.1681C75.1138 41.0599 73.8595 39.451 72.2247 39.1733C72.0607 41.5032 71.57 43.3897 70.4797 44.9425C70.2619 39.1733 67.1549 33.4601 61.1037 31.8512C60.9398 33.7926 61.2677 35.8447 59.9584 37.3988C58.6502 32.5175 54.7259 30.0768 50.4735 30.9634C50.6362 33.0155 50.7464 35.1798 49.8739 36.2333C49.1666 33.2372 45.2961 30.4092 41.8074 29.2437C39.3 31.2411 38.1008 33.6817 37.7741 36.567C37.6114 38.2867 37.8279 40.3936 38.1008 42.4471C36.4109 42.0025 35.2655 39.6179 34.4493 38.065C30.4699 41.7821 28.8889 47.8838 32.1598 53.4849C31.0695 53.1525 30.361 52.4862 29.5436 51.9321C29.0378 51.5209 28.4661 51.2016 27.8536 50.9882C26.7633 53.4302 26.5455 55.9804 27.4168 57.9217C25.2912 57.8657 23.5475 58.4771 21.7486 59.0313C21.5308 60.1956 21.5847 61.8044 21.7486 63.0248C20.7672 63.1916 19.6231 63.9126 18.9684 64.6336C19.2951 65.1342 20.4405 66.9087 20.985 67.4628C20.6033 67.6297 20.3854 67.6297 19.9498 67.9074C19.9498 67.9074 20.1138 68.9061 20.7122 70.2933C18.9684 70.7366 15.9153 70.7366 13.3541 70.6258C13.7359 73.8983 15.044 77.2269 17.1145 78.0587C15.3695 79.2242 13.3541 81.9426 11.718 82.1643C13.8987 87.7654 19.6757 88.7653 24.4187 85.0495C23.6551 87.8787 21.4194 89.5972 18.4765 90.7067C20.7122 92.3703 23.2746 93.3142 25.0734 93.7588C14.2804 99.4707 5.39523 96.6428 2.61625 93.6467C2.72515 97.7523 6.64952 102.745 10.4112 103.965C7.90382 105.24 3.05312 104.63 0 104.52C2.99804 112.342 12.9185 115.17 20.6583 113.451C28.4532 111.786 35.6485 107.128 40.2814 104.132C40.6081 107.406 41.2078 109.901 43.8791 110.956C44.4787 110.956 45.4601 110.733 45.9508 110.123C46.2775 111.344 46.5504 112.509 48.0763 113.562C49.3306 112.952 50.257 112.175 51.2371 111.065C51.4011 111.399 51.5651 111.731 51.8905 112.064C53.3627 111.509 56.9052 109.734 58.3773 107.183C58.5413 107.239 58.7591 107.349 59.0859 107.46C60.394 106.351 61.5932 104.853 62.3017 103.411C62.2479 104.853 62.1928 106.018 62.1377 107.793C62.8462 109.733 64.3183 111.509 68.0249 111.675C71.7865 111.897 73.5303 111.786 76.0376 111.01C77.5648 110.566 79.0357 110.235 80.7268 109.456L77.5122 46.1068Z" fill="black"/>
<path fill-rule="evenodd" clip-rule="evenodd" d="M189.693 67.0745C191.273 64.9128 193.835 63.5243 196.724 63.4695C197.106 65.3013 196.069 67.463 195.142 68.9611C198.195 67.1306 201.193 66.5764 204.628 67.5204C204.628 71.0132 203.21 73.6756 200.267 75.5074C201.247 76.8385 204.083 77.0615 205.936 77.0054C202.23 82.7186 196.506 85.0485 190.729 86.4905C193.453 87.6548 196.614 86.7134 199.34 86.935C197.761 89.5426 194.216 90.484 191.383 91.4827C188.112 89.3197 184.623 86.879 181.136 84.6052C184.842 82.2753 188.492 81.776 192.743 81.3327C193.616 81.2218 193.018 80.9441 193.018 80.9441C191.001 80.9989 188.492 80.9989 186.094 81.4995C190.182 78.5035 194.052 74.7864 197.434 71.403C198.306 70.3496 197.106 71.1266 197.106 71.1266C194.162 74.1214 190.509 76.8385 187.13 79.2792C185.387 80.6104 181.297 82.7186 179.664 83.6052C179.118 83.1619 177.917 82.497 177.319 82.0524C179.5 81.4422 180.754 80.4983 182.444 78.5022C187.786 77.4487 189.201 71.7903 189.693 67.0745ZM165.819 64.8568C165.762 64.9676 164.236 66.7981 164.183 67.1306L163.908 64.8007C163.801 63.7472 165.273 61.1957 165.979 60.6403C165.819 61.8607 165.545 63.2479 165.819 64.8568ZM166.581 66.686C167.561 69.7916 167.997 74.6195 164.999 76.5048C162.657 72.1228 165.545 67.9063 166.581 66.686ZM171.486 58.9206C169.197 59.8085 167.889 61.5269 166.963 63.802C166.527 59.6977 168.869 56.4252 171.703 54.1514C171.76 56.0367 172.304 57.2009 171.486 58.9206ZM168.979 70.1254C166.581 65.5765 167.889 62.7473 171.214 60.3079C172.085 64.0237 171.432 67.6299 168.979 70.1254ZM168.979 71.6234C170.832 73.8425 170.395 76.394 169.305 77.892C168.489 77.5583 167.615 77.2818 166.853 77.0041C168.271 75.3953 168.651 73.6756 168.979 71.6234ZM170.177 70.7916C171.16 70.1266 171.977 68.6286 172.686 67.6299C173.286 69.0171 173.448 70.6821 173.502 72.1788C173.067 72.8985 172.084 74.5087 171.378 74.952C171.65 73.2883 171.268 72.2349 170.177 70.7916ZM179.989 69.7381C181.189 68.8503 182.715 66.742 184.134 66.0771C184.134 67.7968 183.806 69.7929 183.097 71.2909C182.007 71.7355 180.863 72.4005 179.883 73.0667C179.989 71.9559 180.045 70.8464 179.989 69.7381Z" fill="#C6A72A"/>
<path fill-rule="evenodd" clip-rule="evenodd" d="M183.043 72.8438C183.315 74.5635 182.281 77.6691 180.755 78.6678C179.99 79.0003 177.102 79.3888 176.23 78.2232C177.919 75.5622 180.591 73.8973 183.043 72.8438ZM174.43 73.1215L178.41 70.8464C178.41 70.8464 178.246 73.9533 176.885 75.2845C175.138 76.9494 173.232 77.5583 171.105 76.9494C172.686 76.0055 173.666 74.6743 174.43 73.1215ZM173.884 66.1319C174.593 64.9128 176.339 64.025 177.647 62.6938C178.737 67.3522 175.901 71.1254 174.756 71.4018C174.646 69.6273 174.43 67.7395 173.884 66.1319ZM178.193 60.6403C177.266 61.8607 174.266 63.2479 172.741 65.3001C172.687 62.6365 176.448 59.4748 178.246 57.8111C178.681 58.3665 178.409 59.9754 178.193 60.6403ZM172.522 61.6938C172.522 61.0837 172.412 60.3079 172.194 59.6977C172.956 58.9767 173.12 57.5895 173.174 56.5921C173.666 56.1475 174.321 55.7602 175.137 55.7042C175.466 57.7016 173.884 60.862 172.522 61.6938ZM175.028 77.836C174.81 78.7786 174.485 79.1671 173.83 79.8881C173.014 79.3888 171.814 78.8895 170.996 78.5009C172.522 78.5022 173.884 78.6691 175.028 77.836ZM175.738 79.334C176.774 80.2767 177.919 79.9442 179.173 79.8894C178.082 80.6091 177.266 81.2766 176.12 81.2766C175.63 80.9977 174.976 80.5556 174.594 80.334C175.028 80.1098 175.412 79.7786 175.738 79.334ZM188.492 66.6312C188.167 71.1241 186.966 75.4513 183.424 76.8933C184.076 75.7838 184.404 73.8973 184.296 71.9011C184.46 71.7903 185.166 69.1828 185.059 68.7955C186.094 67.6847 187.566 67.0198 188.492 66.6312ZM186.913 66.0211L185.223 66.8529C185.223 66.8529 185.33 65.6886 185.002 64.523C184.296 64.523 183.751 65.0784 183.751 65.0784C183.968 64.1918 184.022 63.2479 184.022 62.36C184.677 61.6951 185.658 60.6404 186.257 59.6977C186.64 61.2505 187.13 64.4122 186.913 66.0211ZM185.986 52.875C187.676 55.4813 185.712 58.9767 183.752 60.4735C183.642 59.364 183.314 58.3105 182.662 57.5334C182.116 54.4278 183.806 53.4304 185.986 52.875ZM182.116 59.7525C182.116 59.7525 183.096 63.6352 182.387 65.3549C181.461 66.8529 178.791 68.7382 178.791 68.7382C179.391 67.1854 179.5 65.244 179.173 63.4683C180.481 62.4709 181.407 61.3066 182.116 59.7525Z" fill="#C6A72A"/>
<path fill-rule="evenodd" clip-rule="evenodd" d="M180.697 53.0406C182.059 55.9807 180.861 59.6417 179.663 60.806C179.717 59.0876 180.263 57.201 179.499 55.5934C179.499 55.4826 177.044 57.3679 176.392 57.4787C176.556 55.1489 179.172 53.8737 180.697 53.0406ZM177.101 53.8177C176.118 53.8177 173.776 54.4279 172.902 55.3157C173.23 53.0406 175.191 50.3235 177.807 49.6025C178.409 50.8229 178.463 52.9298 177.101 53.8177ZM140.252 37.1762C141.124 38.6182 142.215 40.1723 143.142 41.8359C144.45 38.2857 147.611 33.1266 152.3 31.4069C151.1 33.7368 150.063 36.51 150.445 38.3965C150.501 38.9506 151.046 38.785 151.21 38.3965C154.152 33.8476 159.005 31.7394 164.182 28.5229C165.544 31.4082 165.544 34.9024 164.728 37.6768C164.346 38.8971 163.638 39.8946 163.092 40.8933C165.437 40.1723 167.343 38.3978 168.324 36.8985C168.324 36.8985 169.087 38.008 169.797 40.6156C170.559 43.2218 171.051 44.4982 170.777 45.8854C170.652 46.5361 170.451 47.1691 170.177 47.7707C169.849 48.2701 170.177 48.3809 170.615 48.1593C172.085 47.2714 173.559 45.7746 174.212 44.7759C175.084 45.6078 175.684 47.9376 175.684 49.214C173.994 50.2127 172.631 52.4865 172.686 52.5426C172.686 52.5426 172.468 52.154 172.194 51.9324C169.905 53.2636 168.159 55.9259 166.471 58.4226C165.708 59.0876 164.236 60.8073 164.236 60.8073C164.236 60.8073 163.854 59.5322 163.747 59.1436C163.747 58.8099 164.236 58.201 164.727 57.5908C165.216 56.7029 164.563 56.8698 164.345 57.3131C163.583 57.8672 163.309 58.3679 163.255 58.2558L162.218 56.8138C162.436 54.9833 161.947 52.8203 160.692 51.0458C161.184 50.4904 163.636 47.9949 164.345 46.7746C164.235 46.6638 164.345 46.6638 164.235 46.4969C162.709 48.1605 161.455 49.3261 160.257 50.5465C159.492 49.8255 158.892 49.3261 158.457 49.1045C157.965 49.2153 157.092 49.3822 157.092 49.3822C157.53 46.5529 158.129 43.3352 158.564 40.5073C158.946 38.4003 158.239 39.5086 158.018 40.2309C156.874 44.2244 156.549 46.7759 155.566 50.6585C155.131 48.7172 154.476 45.5008 153.822 43.4473C153.277 42.4486 153.004 43.5581 153.222 43.5581C153.55 44.8333 153.822 46.7198 153.767 48.051C153.561 47.9342 153.342 47.8411 153.115 47.7733C152.299 48.4382 151.807 48.8828 150.881 50.5465C150.5 50.2591 150.076 50.0347 149.626 49.8815C149.626 49.8815 147.228 51.6572 146.575 52.7655C144.158 48.877 141.181 45.3803 137.743 42.3926C138.235 40.7264 138.997 39.008 140.252 37.1762ZM156.713 67.4631C155.95 67.63 155.133 68.4618 154.642 69.0732C154.261 65.6339 156.061 62.8047 157.967 61.6951C160.858 65.8007 159.168 70.5152 158.131 71.7916C157.967 70.4031 157.64 68.4618 156.713 67.4631Z" fill="#C6A72A"/>
<path fill-rule="evenodd" clip-rule="evenodd" d="M156.279 75.395C155.951 75.395 155.624 75.3389 155.188 75.3389C155.134 73.953 155.188 72.7874 154.642 71.4562C154.86 70.5696 155.569 69.7913 156.225 69.2385C157.095 71.125 157.041 73.4536 156.279 75.395ZM153.609 71.9556C154.152 72.7326 154.315 74.1746 154.315 75.3389C154.479 75.3389 153.662 75.395 153.17 75.395L153.006 72.3428C153.224 72.1785 153.609 71.9556 153.609 71.9556ZM152.79 70.4028C152.523 68.2076 152.085 66.0375 151.482 63.9125L151.974 63.5227C153.388 65.2997 153.88 68.4614 152.79 70.4028ZM153.88 64.8004C153.498 63.7469 153.008 62.7482 152.3 61.9164L151.1 62.747C150.826 61.8604 150.554 61.0833 150.284 60.2515C151.1 59.3076 151.974 58.4758 153.225 58.0325C155.351 59.8082 154.753 63.7469 153.88 64.8004ZM149.41 58.3102C148.864 57.035 148.046 55.3153 147.283 54.0389C147.721 53.2071 148.973 51.9868 149.574 51.7091C149.956 51.7091 150.336 52.374 150.336 52.374C150.01 53.318 149.464 56.9242 149.41 58.3102ZM150.826 57.756C150.826 54.7612 151.427 51.9881 153.117 49.6582C155.297 51.2123 155.351 55.4274 154.86 57.5357C154.86 57.5357 154.152 56.537 153.662 56.0376C152.244 56.5905 151.318 57.2006 150.826 57.756ZM161.022 59.5865C161.129 58.8656 161.457 57.3675 161.457 57.3675C162.712 59.0872 164.127 63.1355 162.494 65.1889C162.002 65.7443 160.801 66.4093 160.801 66.4093C160.801 65.3558 160.637 64.3023 160.42 63.2489C160.965 62.1928 161.186 60.9738 161.022 59.5865ZM160.694 56.3688C160.148 55.0376 159.55 53.9281 158.513 52.8747C158.131 53.0403 156.769 54.1498 156.769 54.5944C156.004 52.4861 155.951 51.155 158.295 50.49C159.931 51.6543 161.129 54.4275 160.694 56.3688Z" fill="#C6A72A"/>
<path fill-rule="evenodd" clip-rule="evenodd" d="M158.349 54.816C159.604 56.7013 160.42 59.3089 159.714 61.6935C159.293 61.0087 158.819 60.3595 158.295 59.7522C157.363 60.1334 156.525 60.7208 155.843 61.4719C155.733 59.1981 156.389 56.3141 158.349 54.816ZM161.186 72.5658C161.511 73.5084 161.13 74.7836 160.585 75.6166C159.588 75.5134 158.588 75.4395 157.587 75.395C158.349 73.7861 159.004 72.2894 161.186 72.5658ZM159.768 71.4563C160.149 71.0117 160.694 69.2385 160.802 68.129C161.347 67.7952 162.384 67.0195 162.818 66.5188C163.473 68.5162 163.364 70.4028 161.73 71.5123C161.186 71.4002 160.53 71.4002 159.768 71.4563ZM162.764 72.6206C162.818 73.6193 162.928 75.395 163.583 76.1708C162.764 75.8383 162.108 75.8383 161.566 75.7822C161.948 75.0612 162.547 73.7314 162.764 72.6206ZM28.7262 53.1511C30.7979 54.76 33.2502 56.258 36.0304 55.8135C35.1579 54.9816 34.7223 54.6479 34.2867 54.1498C31.6153 50.6544 31.4514 45.2749 34.0138 41.447C35.6486 43.3884 36.9029 44.5539 39.5192 45.0533C41.0451 45.2749 40.6095 44.3323 40.6095 44.3323C38.6479 40.1719 38.8106 34.0154 42.2456 31.7964C46.5517 33.1276 48.4044 35.7899 49.5498 40.1719C51.4575 38.8408 52.6016 35.3466 52.1109 32.5722C53.0923 32.683 53.8559 32.8499 54.5632 33.1276C57.2345 34.2371 58.3787 36.1236 59.1423 40.4496C59.1423 40.4496 60.9949 39.7847 61.8136 37.8433C62.5759 36.4561 62.5221 34.404 62.5221 34.404C62.5221 34.404 64.9744 35.2905 66.7194 37.8981C68.6271 40.8381 69.1716 44.3323 69.2818 46.7182C69.4445 47.8277 70.0441 47.9933 70.6437 47.2723C71.8968 45.7756 72.7693 43.9998 73.3689 41.6152C74.7859 42.8903 75.7673 45.387 76.3118 47.4952C74.3584 49.8155 72.6585 52.3449 71.2421 55.039C71.0793 54.9281 70.8615 54.7613 70.6976 54.6504C70.3158 50.9894 68.7898 47.6621 65.2472 46.6622C64.4849 44.2215 63.3395 42.9464 61.05 41.9477C60.5042 42.6126 60.1224 43.2228 59.9046 43.9998C59.5228 43.3336 58.2698 42.3349 57.6702 42.1145C56.4171 43.0572 55.2717 44.9998 55.0539 46.9959C54.0174 47.6621 53.3089 48.8264 52.9284 49.7691C52.6004 49.4366 52.2198 49.2697 52.0008 49.1589C49.7463 46.0982 47.364 43.1372 44.8606 40.284C44.4249 40.0624 43.4974 39.7847 44.2609 40.8381C46.6594 43.8342 49.004 46.331 50.5299 49.3805C49.0578 51.1002 48.7849 54.0403 48.8951 55.6491C46.2788 54.9281 41.482 52.876 39.1374 51.1002C38.5378 50.6557 37.7754 51.155 38.5928 51.7104C41.9176 54.5944 46.5517 55.3167 49.4947 57.5905C49.0578 58.7 48.8951 59.8095 48.7862 60.919C48.1327 61.1407 47.3153 61.4184 46.6606 61.8617C45.1347 59.5318 42.3545 58.756 40.1738 59.0325C35.9215 56.0924 32.0522 56.7574 30.0343 58.2006C28.4533 57.3676 28.1817 54.4275 28.7262 53.1511ZM66.8283 60.9178C66.5554 61.0846 66.5015 61.8043 66.3376 62.1929C65.6841 60.8617 65.4651 58.8095 66.1198 57.7561C66.9922 57.8121 68.5182 58.2554 69.3356 59.0872C68.9538 60.0299 68.736 60.5292 68.4644 61.4171C68.1915 61.2502 67.1562 60.8057 66.8283 60.9178ZM68.0826 62.5266C67.7558 63.524 67.374 64.8004 67.1562 65.9099C66.8283 64.9125 66.7194 63.2476 67.1562 62.2489C67.1562 62.0833 67.8097 62.3597 68.0826 62.5266ZM62.795 67.1863C62.0865 67.408 61.5419 69.0716 61.5419 69.0716C61.1601 67.7392 60.7784 64.7457 62.1954 63.8005C63.6675 64.1342 66.1748 66.408 66.5015 68.9048L66.3376 70.2359C65.3023 68.6844 63.6124 67.1863 62.795 67.1863Z" fill="#C6A72A"/>
<path fill-rule="evenodd" clip-rule="evenodd" d="M65.465 75.0613C65.1383 75.0065 64.5387 75.0065 63.9391 75.0065C62.139 73.3416 62.139 71.3455 63.1217 69.1264C65.7379 70.292 65.7917 72.5658 65.465 75.0613ZM52.3287 70.0703C53.6368 69.9595 54.8899 70.6257 55.8175 71.6792C56.1442 73.0664 56.5247 74.0091 57.6701 75.1186C55.4357 74.6193 52.2749 72.2894 52.3287 70.0703ZM56.6899 76.0052C55.6547 76.1721 54.5644 76.3389 53.5292 76.6154C53.5292 75.8396 53.4203 74.6193 53.0935 73.8422C54.2915 74.8409 55.2178 75.5619 56.6899 76.0052ZM49.2768 68.7952C48.84 68.4615 47.8047 68.6284 47.8047 68.6284C47.1513 67.6297 46.1699 67.0743 45.1334 66.687C44.7516 65.9112 44.5338 65.189 44.8067 64.3572C46.5517 64.3011 48.9489 67.1303 49.2768 68.7952ZM47.314 62.8031C47.7639 62.4886 48.2943 62.315 48.84 62.3037C49.0039 62.9687 49.2768 63.8565 49.8214 64.6884C49.6594 65.2875 49.55 65.9001 49.4946 66.5189C48.7311 65.8539 47.5869 63.9139 47.314 62.8031ZM44.2772 78.7809L44.316 78.7784C44.3122 78.786 44.2985 78.786 44.2772 78.7809C42.7062 78.9287 40.9274 78.0484 39.8997 76.9491C40.4454 75.5619 42.6248 74.7848 44.4236 74.9517C43.8779 75.3963 43.0066 75.6727 42.243 77.1147C42.5484 77.6294 44.0243 78.7172 44.2772 78.7809ZM41.5358 71.1251C41.5358 72.1225 42.0265 73.0652 42.4082 73.9543C40.6094 74.0091 39.628 74.6193 38.5377 76.0052C36.8478 75.4511 34.8312 72.4002 34.2866 70.5137C36.6851 69.4602 39.7369 70.4028 41.5358 71.1251ZM40.3916 67.2972C42.3532 66.9634 46.3877 68.073 47.0411 70.2933C45.4063 69.2398 42.899 69.1277 41.6447 69.6283C40.9374 68.9596 40.5543 68.2959 40.3916 67.2972ZM43.4435 72.9543C43.0617 72.0665 42.8977 70.5697 42.8977 70.5697C43.5511 70.5697 45.7868 71.1251 46.7682 71.79C47.8586 72.455 47.8586 74.3963 47.6946 74.3416C47.6946 74.3416 46.3864 73.897 45.405 73.953C44.4249 74.0639 43.8804 73.8422 43.4435 72.9543ZM43.9342 62.9139C43.7702 63.1916 43.7164 63.4693 43.6625 63.9126C42.6811 63.0808 41.1552 62.1916 39.9009 62.0821L39.628 60.4159C40.4454 60.2503 44.4249 60.4719 45.5703 63.0234C44.9707 62.6375 44.316 62.8591 43.9342 62.9139Z" fill="#C6A72A"/>
<path fill-rule="evenodd" clip-rule="evenodd" d="M43.7698 66.1881C42.4078 65.9104 39.9543 65.6887 38.7013 66.2441C38.7551 67.2415 39.1369 68.0199 39.6276 68.9064C36.9024 68.6288 34.1222 66.5205 33.5226 63.6913C36.1401 61.9716 41.9171 63.0251 43.7698 66.1881ZM36.5206 61.75C35.5943 60.4175 32.7052 59.6978 31.0153 59.6418C31.6149 58.145 35.8672 58.0329 38.3195 60.308L38.5924 61.6939L36.5206 61.75ZM34.1773 61.9716C33.5777 62.0837 32.5963 62.3602 31.9967 62.7474C31.7776 63.8009 32.3785 64.9664 32.6501 65.6327C30.6335 65.1333 27.6354 63.5805 27.1447 61.3067C28.7808 60.8061 32.5412 60.8061 34.1773 61.9716ZM35.3765 68.5179C34.504 68.7396 32.9242 68.8504 32.3785 69.3485C32.4874 70.2924 33.3599 72.3446 33.8506 73.1216C30.9064 72.677 28.9999 69.9599 28.9448 67.1307C31.0691 66.3549 34.0133 67.1307 35.3765 68.5179ZM29.7622 72.4006C28.3452 72.4006 26.5464 72.8452 25.3471 73.4541C24.3107 73.4541 21.9673 70.3484 21.8584 68.7956C23.7661 68.7956 28.9435 70.6249 29.7622 72.4006ZM34.6129 74.9521C33.1408 75.7279 31.8327 76.5623 30.7974 78.2807C29.1614 78.1698 26.4362 76.7266 25.8366 75.0082C28.4528 72.9547 31.8327 73.2885 34.6129 74.9521ZM35.8672 76.0616C36.9024 77.3928 38.4284 78.3354 39.8467 79.1125C38.2656 80.6666 33.7955 79.8335 32.3785 78.2819C33.0319 77.1151 34.4489 76.0056 35.8672 76.0616ZM41.4815 79.7227C42.6269 80.4437 44.6986 80.222 46.2784 79.8895C45.5148 80.2781 44.7524 80.6653 44.0977 81.1647C42.6807 81.5545 40.937 81.6653 39.356 80.9978C40.2823 80.943 41.0997 80.3876 41.4815 79.7227ZM43.7698 76.7826C45.7326 74.6196 49.6569 75.1177 50.3116 78.003C50.2578 78.003 48.8395 78.5023 48.1861 78.8896C46.2784 78.7227 45.0791 78.1698 43.7698 76.7826ZM49.0035 74.4528C48.5679 73.0655 48.1861 71.3471 48.5679 70.016C50.9125 70.1268 52.4923 73.9547 52.6012 76.8374C52.3834 76.9495 51.8927 77.1151 51.6198 77.282C51.1841 76.282 50.0938 74.8413 49.0035 74.4528ZM61.2135 48.3262C64.0488 48.8816 65.6286 50.8217 66.9367 53.7069C65.8464 52.4866 63.7759 51.321 62.4127 51.4318C61.6504 53.2076 61.4864 55.5362 61.7042 57.145C60.5588 55.3706 59.6325 51.5439 61.2135 48.3262ZM61.4313 43.5557C62.9034 44.2767 63.6119 45.6078 63.7759 47.6052C63.0123 47.0498 61.9233 46.7734 61.0508 46.4957C60.8868 45.3862 60.9957 44.5544 61.4313 43.5557Z" fill="#C6A72A"/>
<path fill-rule="evenodd" clip-rule="evenodd" d="M64.976 56.1474C64.3764 57.313 64.6493 59.9753 64.6493 59.9753C62.7415 58.4773 62.6865 55.4264 63.3962 53.0978C64.4865 53.3195 67.1028 54.9831 67.6473 56.592C67.0464 56.4251 65.9023 55.9258 64.976 56.1474ZM66.0663 65.0783C64.9209 63.6911 63.559 62.1931 61.705 62.1383C61.3783 62.4708 61.0516 62.8593 60.5597 63.9141C59.9062 62.416 60.0151 59.8085 60.5058 58.8658C62.9581 59.2531 65.5743 62.0262 66.0663 65.0783ZM65.2476 47.7158C67.3181 48.4916 69.2822 50.5998 69.4987 54.094C69.2809 53.8723 68.4635 53.7067 68.1906 53.8163C67.6448 51.4877 66.3367 49.7667 65.3014 48.8241L65.2476 47.7158ZM60.4507 57.5894C60.1779 57.5894 59.7422 57.6442 59.4143 57.7002C59.1426 58.476 58.8147 59.7524 58.8697 60.8607C58.0523 60.2505 57.3976 59.5855 56.4175 59.2518C56.2535 57.1996 56.4713 55.7016 57.1798 54.0379C58.9799 54.5946 59.7973 56.0914 60.4507 57.5894ZM56.1997 65.7433C58.3252 66.742 59.1439 67.5203 60.0151 69.6272C59.1965 69.0718 57.3438 68.6846 56.4175 69.1266C55.8179 68.0732 55.7628 66.6312 56.1997 65.7433ZM55.3822 64.9675C55.1094 63.6911 55.1632 61.3625 55.7628 60.4747C58.2701 61.1957 59.3604 63.4708 59.5783 66.6872C58.7608 66.0223 57.1798 64.7472 56.0895 64.4695C55.8217 64.5826 55.5806 64.7524 55.3822 64.9675ZM59.1965 50.1565C58.4341 49.2139 57.5065 48.1044 56.4713 47.4394C56.5802 46.1083 56.8531 45.0535 57.7794 43.6128C60.0151 45.3312 59.8511 47.7719 59.1965 50.1565Z" fill="#C6A72A"/>
<path fill-rule="evenodd" clip-rule="evenodd" d="M58.8709 53.5959C58.1883 53.2109 57.4535 52.9306 56.6903 52.7641C55.5462 54.0953 55.3834 55.5373 55.1644 56.9258C54.4558 55.15 53.2566 50.768 55.3283 48.8267C57.2899 49.3795 58.7069 51.8762 58.8709 53.5959ZM54.6186 59.8085C54.0741 60.8059 53.8012 62.8046 53.9101 64.579C53.0926 63.9141 51.9485 63.7472 50.9658 63.6364C50.4213 62.0836 50.0946 58.4225 52.0562 57.0353C52.9837 57.4238 54.5635 58.6429 54.6186 59.8085ZM54.7826 69.4604C53.8562 68.7394 52.0023 68.5178 51.3489 68.905C50.4226 68.0732 50.6942 65.7433 51.2938 65.1331C54.3457 65.1879 54.4546 67.0745 54.7826 69.4604ZM52.1112 55.3704C51.5667 55.4812 51.076 55.8137 50.5853 56.2022C50.2586 54.4265 50.2586 52.5412 51.5667 50.9871C53.0376 51.9858 53.4194 54.0927 53.6384 56.4239C53.2554 55.9806 52.6019 55.5373 52.1112 55.3704ZM57.1259 70.5139C58.7608 70.1814 60.0151 70.7916 60.9965 71.9011C61.2143 73.1214 61.869 74.4526 62.4135 75.2844C61.5422 75.3392 61.2694 75.3392 60.5608 75.5061C58.8709 74.0641 57.5077 74.0641 57.1259 70.5139ZM68.4096 54.9271C69.1181 55.094 70.0995 55.3717 70.7542 56.0366C70.4275 56.7563 70.2084 57.3117 69.8817 57.9219C69.0092 57.2009 68.5185 56.3691 68.4096 54.9271ZM23.0033 60.1422C24.4203 59.532 27.0917 59.0875 28.9456 59.1983C29.1634 59.3652 29.5452 59.7537 29.5452 59.7537C28.9456 59.7537 25.8937 59.7537 25.3479 60.6416C25.4568 61.4734 25.7835 62.3613 26.2742 62.9714C25.4017 62.7485 24.0398 62.7485 23.3851 62.7485C23.2211 62.6377 22.8393 60.8619 23.0033 60.1422ZM28.9994 65.6325C28.4536 65.6885 27.6374 65.8541 27.0917 66.2974C26.9828 67.0184 27.3646 68.6273 27.7989 69.3483C25.3467 69.0158 22.1846 67.4082 20.9854 64.8567C22.6766 63.5243 27.4184 63.858 28.9994 65.6325ZM21.4223 90.7056C23.8207 89.2623 26.7649 86.3236 26.4921 82.7173C24.6932 82.7173 23.8758 83.2727 23.1122 83.66C20.1142 86.2115 16.3525 86.3783 13.9541 82.8281C15.0457 82.218 15.7542 81.3301 16.3538 80.6651C17.1712 79.8333 17.9899 79.0002 19.3518 77.892C17.0623 76.9493 15.972 75.1723 15.3186 72.2896C17.4992 72.2896 20.0603 72.1788 21.4774 71.7903C22.5126 73.2883 23.9296 74.7303 23.9296 74.6742C24.0385 75.2296 24.3114 75.7277 24.5292 76.2283C24.5292 76.2283 23.166 75.9506 22.2397 75.9506C22.2935 76.3392 23.9296 76.7825 25.1289 76.9493C27.3646 78.8346 28.8892 79.6664 31.7245 79.8894C31.9974 80.8881 30.3613 81.6091 29.763 82.7186C29.763 82.7186 28.9456 83.9937 30.3075 82.9402C31.2889 81.9428 32.7598 80.7772 33.2517 80.6664C34.451 81.3314 36.3587 81.7199 37.6668 81.5543C38.7033 82.5517 40.3932 82.5517 41.8653 82.5517C37.6668 85.4917 33.6886 88.5986 29.3824 91.4279C27.5273 92.368 23.4402 92.48 21.4223 90.7056ZM44.0985 109.73C41.809 109.231 41.1005 104.738 41.973 103.075C42.0819 104.35 42.5188 105.959 43.3349 106.957C44.3163 106.79 45.5155 105.348 46.0062 105.072C45.9512 107.068 45.7334 109.122 44.0985 109.73Z" fill="#C6A72A"/>
<path fill-rule="evenodd" clip-rule="evenodd" d="M43.3896 102.132C44.9707 101.188 46.5517 100.247 48.0776 99.4684C47.5318 101.965 45.733 103.685 43.9893 104.738C43.5524 104.128 43.3896 103.131 43.3896 102.132ZM48.4582 111.451C46.0597 109.676 47.15 105.072 48.3492 102.742L49.0027 104.683C50.3108 104.517 51.6189 103.796 52.8182 102.963C52.2749 106.514 50.9655 109.843 48.4582 111.451ZM49.5485 98.5257C51.8918 97.3614 54.1275 96.3067 56.4709 95.4201C55.9802 99.3028 53.255 101.411 50.1468 102.631C49.5485 101.966 49.3857 99.5805 49.5485 98.5257ZM52.3838 110.342C52.166 109.897 52.221 109.288 52.3299 108.51C53.2563 106.625 54.0199 104.683 54.0749 102.132L55.7649 100.634C55.656 102.908 56.2017 104.127 57.1819 106.069C56.362 108.012 54.2915 109.676 52.3838 110.342ZM58.9795 105.294C56.4721 103.298 57.0179 98.0277 57.9442 95.5309C59.0346 97.085 60.1787 98.3614 62.1415 99.6365C61.5957 102.077 60.5592 104.24 58.9795 105.294ZM61.8686 97.75C60.941 97.1398 59.7431 96.085 59.0346 94.5883C60.0698 94.2558 61.4868 93.9233 62.3593 93.8125C62.522 95.6978 62.3581 96.4188 61.8686 97.75Z" fill="#C6A72A"/>
<path fill-rule="evenodd" clip-rule="evenodd" d="M62.0864 91.4815C59.1972 91.926 56.3081 92.7578 50.8027 95.4749C45.3524 98.1946 40.0648 101.854 35.3769 104.738C30.6338 107.678 22.6762 111.95 17.6064 112.393C12.0472 112.783 5.45152 110.785 2.0166 105.848C5.88714 106.292 11.4476 105.904 13.4092 103.574C11.1747 103.129 9.92042 102.408 7.95886 101.023C5.66933 99.3016 4.74301 96.7501 4.74301 96.7501C8.88519 98.1933 12.5917 98.5258 16.953 97.9144C21.313 97.2507 25.7831 95.1412 31.5614 91.4254C37.2308 87.8752 44.1532 80.9952 53.0935 78.3341C59.1434 76.6144 63.8864 76.6144 65.9569 76.7813C66.0107 81.6627 66.8294 86.3772 68.3553 90.7592C67.046 90.8726 64.0479 91.0929 62.0864 91.4815ZM63.6123 93.4788C65.4943 93.2576 67.3872 93.1466 69.2817 93.1464C70.3231 95.7396 71.6005 98.228 73.0971 100.579C69.6635 100.191 65.9018 99.9691 63.3407 102.41L63.6123 93.4788Z" fill="white"/>
<path fill-rule="evenodd" clip-rule="evenodd" d="M66.1747 109.176C63.6674 107.513 63.4483 105.183 64.9217 103.352C66.2298 101.689 67.6468 101.412 69.3906 101.245C70.427 101.189 72.4975 101.356 73.6967 101.523C75.4968 104.075 77.5134 106.459 79.7479 108.567C75.9863 110.064 69.1177 111.062 66.1747 109.176ZM152.518 109.953C149.083 110.564 143.577 109.564 139.87 108.067C141.885 106.12 143.694 103.963 145.267 101.633C146.631 101.578 149.083 101.466 150.338 101.466C151.592 101.411 153.826 101.578 155.135 103.187C157.477 106.015 155.733 109.454 152.518 109.953Z" fill="white"/>
<path fill-rule="evenodd" clip-rule="evenodd" d="M145.921 100.635C147.447 98.3051 148.812 95.8083 149.846 93.146C151.755 93.146 154.589 93.2568 156.495 93.4785L156.713 102.409C153.988 99.7458 149.628 100.246 145.921 100.635Z" fill="white"/>
<path fill-rule="evenodd" clip-rule="evenodd" d="M157.914 93.7563C158.948 93.8672 161.784 94.5321 163.092 95.0315C163.474 95.1423 163.855 95.3092 164.126 95.42C164.564 96.0849 164.727 97.1957 164.618 97.9715C160.694 97.4722 159.004 95.8646 157.914 93.7563ZM172.468 100.855C172.958 100.801 173.612 100.745 174.212 100.3C175.028 100.855 176.557 101.687 177.483 102.297C176.011 103.187 173.068 102.575 172.468 100.855ZM179.444 103.574C180.348 104.146 181.239 104.738 182.117 105.35C180.645 105.793 178.3 105.127 177.374 104.185C178.573 103.852 178.245 103.908 179.444 103.574ZM174.376 106.18C172.195 106.957 168.435 105.072 167.345 103.185C168.981 103.075 169.525 103.018 170.833 101.909C172.304 102.909 173.83 104.128 174.376 106.18ZM166.417 96.2518C167.943 96.9168 170.996 98.304 172.576 99.3027C170.452 101.077 167.345 98.4148 166.417 96.2518ZM169.796 101.133C167.725 103.075 162.982 100.745 162.329 99.0262C163.199 99.3587 165.109 99.6364 165.597 99.5804C165.707 99.0262 165.761 97.6951 165.761 97.6951C166.635 99.1918 168.705 100.69 169.796 101.133ZM158.021 99.2479L157.967 96.0862C157.967 96.0862 159.714 97.4734 160.801 99.0275C161.293 100.192 161.076 101.912 161.076 101.912C159.603 101.522 158.677 100.855 158.021 99.2479ZM159.767 102.742C160.367 102.964 161.511 103.574 162.22 103.629C162.384 103.018 162.438 101.853 162.384 101.299C164.618 101.799 166.689 104.295 166.582 106.292C165.544 106.792 161.022 106.403 159.767 102.742ZM163.584 107.678C164.782 107.845 166.636 107.901 167.78 107.402C167.89 107.235 167.944 106.846 168.054 106.57C168.654 106.958 169.088 107.346 169.416 107.901C169.962 109.121 170.56 110.453 171.597 111.451C168.161 111.84 164.236 109.621 163.584 107.678ZM173.558 111.395C172.194 110.952 170.776 108.622 170.288 106.958C171.05 107.347 171.76 107.514 172.63 107.678C173.666 109.399 175.356 110.175 177.045 110.84C176.229 111.673 174.322 111.617 173.558 111.395Z" fill="#C6A72A"/>
<path fill-rule="evenodd" clip-rule="evenodd" d="M173.994 107.623C174.376 107.623 176.065 107.567 176.393 107.124C176.229 106.236 175.52 105.237 174.81 104.293C178.245 104.738 180.644 107.844 181.952 109.342C180.591 110.785 175.356 109.232 173.994 107.623ZM180.915 106.848C182.059 106.848 183.042 106.625 184.076 106.57L185.441 107.456C184.404 108.344 181.625 107.901 180.915 106.848Z" fill="#C6A72A"/>
<path fill-rule="evenodd" clip-rule="evenodd" d="M202.501 112.393C197.433 111.95 189.475 107.678 184.732 104.738C180.045 101.853 174.756 98.1934 169.251 95.475C163.801 92.7579 160.911 91.9261 158.021 91.4815C155.951 91.093 152.244 90.7605 150.772 90.7605C152.244 86.4346 153.063 81.7188 153.17 76.8374H159.222C163.69 76.8374 171.321 79.8895 176.011 82.8283C180.697 85.8244 185.003 89.0969 188.602 91.3707C194.326 95.0865 198.796 97.2508 203.157 97.9157C207.516 98.5259 212.313 98.1386 216.129 96.1412C215.039 100.135 210.352 103.13 207.08 103.186C208.716 105.792 214.111 106.735 217.982 106.346C214.603 111.007 208.061 112.783 202.501 112.393Z" fill="white"/>
<path fill-rule="evenodd" clip-rule="evenodd" d="M126.788 23.5308H91.8477V25.9714H126.788V23.5308Z" fill="black"/>
<path fill-rule="evenodd" clip-rule="evenodd" d="M126.243 25.4171H92.3936V24.0859H126.243V25.4171Z" fill="#C6A72A"/>
<path fill-rule="evenodd" clip-rule="evenodd" d="M93.3162 27.022C92.3135 27.022 91.2031 27.6334 91.2031 28.6894C91.2031 29.8002 92.3998 30.2524 93.3249 30.2524C94.25 30.2524 95.4367 29.8002 95.4367 28.6894C95.4367 27.6334 94.3201 27.022 93.3162 27.022Z" fill="black"/>
<path fill-rule="evenodd" clip-rule="evenodd" d="M93.3198 29.7432C92.4473 29.7432 91.7388 29.2999 91.7388 28.6897C91.7388 28.0795 92.4473 27.5254 93.3198 27.5254C94.1923 27.5254 94.9008 28.0795 94.9008 28.6897C94.9008 29.2999 94.1923 29.7432 93.3198 29.7432Z" fill="#C6A72A"/>
<path fill-rule="evenodd" clip-rule="evenodd" d="M125.187 27.022C124.184 27.022 123.073 27.6334 123.073 28.6894C123.073 29.8002 124.271 30.2524 125.195 30.2524C126.121 30.2524 127.308 29.8002 127.308 28.6894C127.306 27.6334 126.19 27.022 125.187 27.022Z" fill="black"/>
<path fill-rule="evenodd" clip-rule="evenodd" d="M125.189 29.7432C124.319 29.7432 123.609 29.2999 123.609 28.6897C123.609 28.0795 124.318 27.5254 125.189 27.5254C126.062 27.5254 126.771 28.0795 126.771 28.6897C126.771 29.2999 126.062 29.7432 125.189 29.7432Z" fill="#C6A72A"/>
<path fill-rule="evenodd" clip-rule="evenodd" d="M109.292 26.9229C108.032 26.9229 106.249 27.4349 106.249 28.6897C106.249 29.9419 108.032 30.4565 109.292 30.4565C110.599 30.4565 112.391 29.947 112.391 28.6897C112.39 27.4324 110.599 26.9229 109.292 26.9229Z" fill="black"/>
<path fill-rule="evenodd" clip-rule="evenodd" d="M109.291 29.9099C107.929 29.9099 106.785 29.3545 106.785 28.6896C106.785 28.0246 107.929 27.4692 109.291 27.4692C110.708 27.4692 111.855 28.0246 111.855 28.6896C111.855 29.3545 110.708 29.9099 109.291 29.9099Z" fill="#C6A72A"/>
<path fill-rule="evenodd" clip-rule="evenodd" d="M117.783 27.2925C117.418 27.2923 117.067 27.44 116.808 27.703C116.549 27.966 116.404 28.3228 116.404 28.695C116.404 29.0671 116.549 29.4241 116.807 29.6873C117.066 29.9506 117.416 30.0986 117.782 30.0988C118.148 30.0989 118.499 29.9513 118.757 29.6882C119.016 29.4252 119.161 29.0684 119.162 28.6963C119.162 28.3241 119.017 27.9672 118.758 27.7039C118.5 27.4406 118.149 27.2926 117.783 27.2925Z" fill="black"/>
<path fill-rule="evenodd" clip-rule="evenodd" d="M100.704 27.2925C100.523 27.2925 100.344 27.3288 100.176 27.3993C100.009 27.4699 99.8568 27.5733 99.7287 27.7036C99.6007 27.834 99.499 27.9887 99.4297 28.1591C99.3604 28.3294 99.3247 28.5119 99.3247 28.6963C99.3247 28.8806 99.3604 29.0631 99.4297 29.2335C99.499 29.4038 99.6007 29.5585 99.7287 29.6889C99.8568 29.8192 100.009 29.9226 100.176 29.9932C100.344 30.0637 100.523 30.1 100.704 30.1C101.07 30.1 101.421 29.9521 101.68 29.6889C101.938 29.4256 102.084 29.0686 102.084 28.6963C102.084 28.3239 101.938 27.9669 101.68 27.7036C101.421 27.4404 101.07 27.2925 100.704 27.2925Z" fill="black"/>
<path fill-rule="evenodd" clip-rule="evenodd" d="M100.704 29.5519C100.591 29.5563 100.478 29.5374 100.372 29.4964C100.266 29.4553 100.169 29.393 100.087 29.313C100.006 29.233 99.9408 29.137 99.8964 29.0309C99.852 28.9247 99.8291 28.8106 99.8291 28.6952C99.8291 28.5798 99.852 28.4656 99.8964 28.3595C99.9408 28.2533 100.006 28.1574 100.087 28.0774C100.169 27.9974 100.266 27.935 100.372 27.894C100.478 27.853 100.591 27.8341 100.704 27.8385C100.922 27.8471 101.128 27.9411 101.279 28.1008C101.43 28.2605 101.514 28.4735 101.514 28.6952C101.514 28.9168 101.43 29.1299 101.279 29.2896C101.128 29.4493 100.922 29.5433 100.704 29.5519Z" fill="#C6A72A"/>
<path fill-rule="evenodd" clip-rule="evenodd" d="M121.829 19.8401C121.993 19.6185 122.265 19.1739 122.265 18.6759C122.265 17.9549 122.177 17.453 121.196 16.3982C120.213 15.3995 118.502 14.4467 115.886 13.6849C115.385 13.541 114.877 13.4287 114.363 13.3486C113.108 15.4568 112.018 17.7307 111.418 20.0618C114.852 20.0631 118.395 19.8962 121.829 19.8401ZM96.7611 19.8401C100.195 19.8949 103.739 20.0618 107.172 20.0618C106.573 17.7319 105.482 15.4581 104.229 13.3486C103.715 13.4283 103.206 13.5406 102.706 13.6849C100.087 14.4467 98.3759 15.3995 97.3945 16.3982C96.4131 17.4517 96.3242 17.9536 96.3242 18.6759C96.3255 19.1739 96.5971 19.6185 96.7611 19.8401Z" fill="#CC2229"/>
<path fill-rule="evenodd" clip-rule="evenodd" d="M109.295 16.5128C109.131 16.3459 107.609 13.4059 106.681 11.6862C105.755 10.0773 104.065 7.58057 104.065 7.58057L101.445 8.57034C101.445 8.62512 102.266 9.41108 102.975 10.3537C103.738 11.3524 105.184 13.3396 106.626 16.6771C108.098 19.9496 107.772 20.6706 107.772 20.6706L96.9248 20.4502C96.9849 20.868 97.3404 21.2413 97.7422 21.4476H120.849C121.25 21.2413 121.605 20.868 121.665 20.4502L110.82 20.6706C110.82 20.6706 110.492 19.9509 111.964 16.6771C113.406 13.3396 114.852 11.3524 115.614 10.3537C116.323 9.41108 117.145 8.62639 117.145 8.57034L114.524 7.58057C114.524 7.58057 112.834 10.076 111.908 11.6862C110.981 13.4059 109.459 16.3459 109.295 16.5128Z" fill="#C6A72A"/>
<path fill-rule="evenodd" clip-rule="evenodd" d="M109.286 12.6734C108.831 12.6672 108.377 12.7146 107.933 12.8148L109.294 15.3778L110.656 12.8148C110.206 12.7151 109.747 12.6676 109.286 12.6734Z" fill="#CC2229"/>
<path fill-rule="evenodd" clip-rule="evenodd" d="M112.531 3.20002H111.395C111.395 1.95292 110.617 0.602645 109.302 0.600098C107.997 0.602645 107.22 1.96056 107.22 3.20002H106.111C105.132 3.1911 104.173 3.67898 104.17 4.42163C104.162 5.21651 105.187 5.67892 106.059 5.67892H108.027V7.76165C108.027 8.08903 108.294 8.39348 108.648 8.39348H109.979C110.142 8.38986 110.297 8.32193 110.412 8.20404C110.526 8.08615 110.591 7.92752 110.593 7.76165V5.67892H112.492C113.509 5.69165 114.448 5.17065 114.448 4.44201C114.441 3.76942 113.637 3.20002 112.531 3.20002Z" fill="black"/>
<path fill-rule="evenodd" clip-rule="evenodd" d="M112.495 5.13135H110.052V7.76439C110.052 7.80515 110.006 7.84591 109.978 7.84591H108.648C108.61 7.84591 108.568 7.8077 108.568 7.76439V5.13135H106.059C105.184 5.13135 104.708 4.67786 104.711 4.42818C104.711 4.21672 105.139 3.74286 106.107 3.75305H107.759V3.20147C107.759 2.09832 108.436 1.1544 109.3 1.15186C110.18 1.15313 110.853 2.0945 110.853 3.20147V3.75305H112.531C113.562 3.75305 113.905 4.26131 113.908 4.44729C113.908 4.64856 113.487 5.14281 112.495 5.13135Z" fill="#C6A72A"/>
<path fill-rule="evenodd" clip-rule="evenodd" d="M92.9393 7.36409C90.949 7.19085 88.7872 7.58192 87.2875 8.68125C85.7954 9.71433 84.7964 11.327 84.5523 13.3435C84.3984 14.9562 84.9679 16.6084 85.923 18.0122C87.2337 19.9369 89.3592 21.5063 91.5949 21.9891C92.8417 22.1483 92.8367 21.0235 92.0719 20.4579C91.8303 20.2669 91.2544 19.8732 90.6386 19.3204C90.0339 18.779 89.4256 18.1128 89.0625 17.3727C88.488 16.2046 88.3603 14.3282 89.3717 12.5716C89.8224 11.7869 91.128 10.6799 93.8106 10.6799C94.9898 10.6799 96.7761 11.0519 97.8676 11.4748C98.6075 11.769 99.2046 12.1295 99.4161 12.2378C99.704 12.3627 100.317 12.4263 100.47 11.8136C100.548 11.5054 100.406 11.1818 100.29 11.0137C99.0381 9.49778 95.3891 7.65453 92.9393 7.36409Z" fill="black"/>
<path fill-rule="evenodd" clip-rule="evenodd" d="M99.6442 11.7399C99.4252 11.6291 98.8243 11.266 98.0632 10.9629C96.9178 10.5183 95.0652 10.131 93.8121 10.131C90.9781 10.131 89.4734 11.3081 88.9063 12.294C87.801 14.2163 87.9249 16.2888 88.5796 17.62C89.397 19.2836 91.251 20.5052 91.7404 20.8925C92.2862 21.281 92.1222 21.5027 91.6866 21.4466C89.6036 20.9969 87.6132 19.5257 86.3677 17.699C85.4627 16.3703 84.9519 14.8519 85.0896 13.4036C85.3149 11.5437 86.235 10.075 87.597 9.13235C88.9602 8.13366 90.9768 7.74641 92.8845 7.91201C95.2279 8.18971 98.7166 9.96417 99.862 11.3514C99.9947 11.5437 100.025 11.9055 99.6442 11.7399Z" fill="#C6A72A"/>
<path fill-rule="evenodd" clip-rule="evenodd" d="M134.129 13.3435C133.888 11.327 132.89 9.71433 131.396 8.68125C129.895 7.58192 127.733 7.19085 125.742 7.36409C123.293 7.65453 119.645 9.49778 118.393 11.0149C118.276 11.1831 118.134 11.5066 118.212 11.8149C118.366 12.4264 118.977 12.3639 119.266 12.2391C119.478 12.1321 120.073 11.7716 120.813 11.4761C121.906 11.0531 123.691 10.6812 124.869 10.6812C127.554 10.6812 128.857 11.7882 129.309 12.5728C130.322 14.3295 130.194 16.2046 129.619 17.374C129.255 18.1141 128.647 18.7803 128.042 19.3217C127.426 19.8745 126.849 20.2681 126.609 20.4592C125.844 21.0248 125.839 22.1496 127.086 21.9904C129.32 21.5076 131.447 19.9382 132.757 18.0134C133.716 16.6084 134.283 14.9562 134.129 13.3435Z" fill="black"/>
<path fill-rule="evenodd" clip-rule="evenodd" d="M132.315 17.699C131.071 19.5257 129.081 20.9969 126.998 21.4466C126.562 21.5014 126.398 21.281 126.944 20.8925C127.433 20.504 129.286 19.2836 130.105 17.62C130.757 16.2888 130.882 14.2163 129.777 12.294C129.21 11.3094 127.706 10.131 124.87 10.131C123.618 10.131 121.765 10.5183 120.619 10.9629C119.859 11.266 119.257 11.6278 119.039 11.7399C118.657 11.9055 118.687 11.5437 118.821 11.3514C119.965 9.96417 123.454 8.18971 125.796 7.91201C127.705 7.74641 129.723 8.13366 131.085 9.13235C132.447 10.075 133.366 11.5437 133.591 13.4036C133.731 14.8519 133.221 16.3691 132.315 17.699Z" fill="#C6A72A"/>
<path fill-rule="evenodd" clip-rule="evenodd" d="M35.8638 100.272L34.8624 100.943L33.4366 98.5703C32.6467 99.1435 31.9006 99.6377 31.2472 100.026L32.6179 102.415L31.6428 103.027L28.5821 97.611L29.5635 97.0085L30.7427 99.1371C31.5082 98.6962 32.2476 98.21 32.9572 97.6811L31.7266 95.634L32.7393 94.9704L35.8638 100.272ZM51.674 83.4102L52.5865 85.9515C53.3535 85.5826 54.1376 85.2519 54.9361 84.9605L54.0974 82.4255C54.4755 82.2956 54.8635 82.1708 55.2478 82.0498L57.143 88.0789C56.735 88.2075 56.412 88.3145 56.069 88.4355L55.189 85.8127C54.3891 86.1197 53.5379 86.4509 52.8995 86.8025L53.8383 89.3374L52.7292 89.8533L50.5073 83.9516L51.674 83.4102ZM61.0674 84.8369L59.8206 82.7937L59.3061 85.2127C59.892 85.0509 60.5016 84.9236 61.0674 84.8369ZM63.5585 86.712L62.3092 86.8713L61.5581 85.7248C60.7444 85.8687 59.9383 86.0331 59.1422 86.2127L58.8693 87.5961L57.7251 87.8776L59.0833 81.1402L60.0084 80.9772L63.5585 86.712ZM51.0856 90.6673L50.0166 89.6584C49.2104 90.0572 48.4343 90.5119 47.8234 90.9272L47.9148 92.3641L46.8258 92.9921L46.3413 86.0598L47.2051 85.591L52.2686 90.0775C51.868 90.2648 51.4737 90.461 51.0856 90.6673ZM49.2517 88.9935L47.4704 87.2636L47.7471 89.8673C48.2027 89.5654 48.7272 89.2483 49.2517 88.9935ZM43.3796 92.0342L42.6686 92.5029L43.526 93.9921L44.2621 93.4787C44.7503 93.1386 44.8367 92.6685 44.5488 92.215C44.2971 91.8201 43.6562 91.8494 43.3796 92.0342ZM42.8876 95.4633L39.8558 90.1056L41.4018 89.0788C41.8624 88.7731 42.999 88.4559 43.7 89.489C44.028 89.9718 44.0543 90.5743 43.879 90.982C44.5876 90.7043 45.405 90.9259 45.7868 91.7577C46.2237 92.7004 45.7693 93.6048 44.8317 94.2099L42.8876 95.4633ZM42.2092 91.6737L42.7524 91.2762C43.0904 91.0316 43.1768 90.6202 42.9214 90.2087C42.8728 90.1225 42.8076 90.0471 42.7297 89.9871C42.6518 89.9271 42.5628 89.8836 42.4681 89.8594C42.3733 89.8351 42.2747 89.8306 42.1782 89.8459C42.0817 89.8613 41.9892 89.8963 41.9062 89.9489L41.4481 90.2635L42.2092 91.6737ZM39.5704 97.8658C38.1045 98.8607 36.0616 98.7193 35.1065 97.1448C34.1852 95.6239 34.5294 93.6621 35.9752 92.6469C37.4323 91.624 39.5015 91.7998 40.4504 93.3118C41.4343 94.8812 41.04 96.8684 39.5704 97.8658ZM36.0841 96.4238C36.72 97.4582 38.0319 97.6365 38.9708 96.9703C39.9071 96.3041 40.1086 95.0162 39.4652 94.0328C39.3128 93.802 39.1168 93.6043 38.8887 93.4511C38.6606 93.2979 38.4049 93.1923 38.1364 93.1404C37.8679 93.0885 37.592 93.0913 37.3246 93.1487C37.0572 93.2062 36.8036 93.317 36.5786 93.4749C35.636 94.1411 35.4758 95.4353 36.0841 96.4238ZM21.482 107.145C22.5798 106.823 23.1156 105.514 22.7213 104.411C22.3069 103.25 21.2629 102.718 20.1876 103.087C19.0936 103.462 18.5841 104.627 18.847 105.77C19.1211 106.967 20.3729 107.469 21.482 107.145ZM17.6202 105.69C17.3373 104.034 18.2085 102.43 19.8096 101.95C21.6773 101.388 23.1456 101.896 23.8742 103.824C24.6252 105.804 23.5862 107.621 21.815 108.195C20.0074 108.781 18.032 108.101 17.6202 105.69ZM29.5661 102.431L30.2207 103.652C29.8677 104.156 29.6149 104.398 29.1066 104.699C27.5482 105.622 25.5165 105.053 24.7692 103.374C24.0494 101.756 24.3536 99.918 26.0498 99.0097C26.5768 98.7269 27.0825 98.6441 27.5494 98.7155L28.2029 99.8798C27.5069 99.6632 27.1313 99.6849 26.568 99.9906C25.5766 100.532 25.3125 101.791 25.8044 102.821C26.3214 103.903 27.5507 104.311 28.6385 103.652C29.0813 103.371 29.4104 102.938 29.5661 102.431ZM165.529 87.3668C165.596 87.1281 165.574 86.8726 165.466 86.65C165.358 86.4274 165.172 86.2538 164.945 86.163L164.029 85.8267L163.474 87.6547L164.095 87.8751C164.408 87.9846 165.28 88.2381 165.529 87.3668ZM165.801 84.5478C165.924 84.1452 165.725 83.637 165.3 83.5007L164.77 83.33L164.28 85.0293L164.752 85.1847C164.929 85.2433 165.532 85.4344 165.801 84.5478ZM165.317 82.5032C166.348 82.8306 167.277 83.6688 166.94 84.7885C166.652 85.7452 166.163 85.8114 165.871 85.8777C166.526 86.2114 166.859 87.0127 166.617 87.7655C166.287 88.7884 165.363 89.2776 164.075 88.8164C163.295 88.5298 162.682 88.2903 162.148 88.1273L163.898 82.0523L165.317 82.5032ZM179.615 92.9169C179.984 92.3628 179.913 91.5947 179.368 91.2278C179.124 91.0606 178.825 90.9979 178.536 91.0532C178.247 91.1085 177.991 91.2774 177.823 91.5233C177.737 91.6474 177.677 91.7879 177.646 91.9364C177.615 92.085 177.614 92.2383 177.643 92.3873C177.672 92.5362 177.73 92.6776 177.815 92.8028C177.899 92.928 178.008 93.0345 178.134 93.1157C178.622 93.4367 179.304 93.3793 179.615 92.9169ZM179.974 90.4291C180.933 91.1539 181.203 92.4176 180.617 93.4761C180.231 94.1755 179.625 94.4175 178.952 94.6443L175.848 95.6977L175.52 94.699L177.918 93.978C177.662 93.9193 177.42 93.806 177.21 93.6456C176.43 93.0367 176.296 91.7768 176.858 90.8941C177.378 90.0775 178.657 89.433 179.974 90.4291ZM186.702 98.8709C187.526 97.355 188.959 96.5639 190.27 97.3308C191.609 98.118 191.37 100.01 190.624 101.355C189.768 102.903 188.397 103.635 187.092 102.887C185.745 102.115 185.955 100.248 186.702 98.8709ZM187.828 99.4428C187.204 100.672 187.082 101.673 187.627 102.029C188.305 102.471 189.231 101.486 189.679 100.664C190.136 99.8275 190.436 98.5193 189.804 98.1448C189.064 97.7117 188.106 98.8925 187.828 99.4428ZM198.394 102.889C197.683 102.617 197.035 102.384 196.475 102.119L194.477 107.02L193.356 106.45L195.764 100.597C196.69 101.052 197.681 101.463 198.737 101.83L198.394 102.889ZM173.955 87.9286C173.744 87.7865 173.526 87.6568 173.301 87.54L173.793 86.6522C174.38 86.9719 174.957 87.3107 175.519 87.6661L172.484 93.0978L171.499 92.5233L173.955 87.9286ZM199.309 107.367C199.7 107.352 200.018 107.691 200.018 108.088C200.018 108.486 199.7 108.826 199.309 108.809C199.13 108.799 198.961 108.718 198.839 108.584C198.717 108.449 198.652 108.271 198.657 108.088C198.657 107.706 198.932 107.384 199.309 107.367ZM185.101 93.8825C186.063 94.606 186.333 95.871 185.747 96.9295C185.358 97.6289 184.752 97.8696 184.082 98.0977L180.975 99.1511L180.65 98.1524L183.048 97.4314C182.792 97.3732 182.55 97.2598 182.34 97.099C181.557 96.4901 181.423 95.2302 181.986 94.3475C182.505 93.5309 183.786 92.8864 185.101 93.8825ZM184.742 96.369C185.114 95.8149 185.042 95.0481 184.498 94.6799C183.987 94.336 183.31 94.4086 182.962 94.922C182.61 95.443 182.715 96.2111 183.26 96.569C183.752 96.8901 184.434 96.8327 184.742 96.369ZM109.508 120.6C85.4811 120.6 65.9043 100.621 65.9043 76.1697C65.9043 51.7195 85.4811 31.7979 109.508 31.7979C133.536 31.7979 153.168 51.7195 153.168 76.1697C153.168 100.622 133.536 120.6 109.508 120.6Z" fill="black"/>
<path fill-rule="evenodd" clip-rule="evenodd" d="M109.51 118.606C86.5605 118.606 67.8638 99.5254 67.8638 76.172C67.8638 52.8186 86.5605 33.7925 109.51 33.7925C132.459 33.7925 151.211 52.8186 151.211 76.172C151.211 99.5254 132.458 118.606 109.51 118.606Z" fill="#C6A72A"/>
<path fill-rule="evenodd" clip-rule="evenodd" d="M109.454 36.6221C88.086 36.6221 70.6436 54.4279 70.6436 76.1711C70.6436 98.0265 88.086 115.776 109.454 115.776C130.875 115.776 148.32 97.9704 148.32 76.1711C148.32 54.4279 130.876 36.6781 109.454 36.6221Z" fill="black"/>
<path fill-rule="evenodd" clip-rule="evenodd" d="M109.454 115.056C88.4678 115.056 71.3521 97.5831 71.3521 76.1723C71.3521 54.8163 88.4678 37.3442 109.454 37.3442C130.494 37.4003 147.61 54.8176 147.61 76.1723C147.611 97.5831 130.494 115 109.454 115.056Z" fill="white"/>
<path fill-rule="evenodd" clip-rule="evenodd" d="M84.3295 96.6962C84.5752 96.6962 84.8108 96.7956 84.9845 96.9723C85.1582 97.1491 85.2558 97.3889 85.2558 97.6389C85.2558 98.1472 84.9128 98.5815 84.3683 98.5815C84.1255 98.5769 83.8941 98.4756 83.7237 98.2994C83.5534 98.1232 83.4576 97.8861 83.457 97.6389C83.4558 97.1345 83.8325 96.6962 84.3295 96.6962ZM134.699 96.7243C135.21 96.7217 135.572 97.1625 135.572 97.6669C135.572 98.1714 135.192 98.6083 134.699 98.6096C134.453 98.6096 134.218 98.5103 134.044 98.3335C133.87 98.1567 133.773 97.9169 133.773 97.6669C133.773 97.4169 133.87 97.1772 134.044 97.0004C134.218 96.8236 134.453 96.7243 134.699 96.7243ZM115.565 43.1617L116.253 43.3005L116.568 41.6687L115.822 41.5209C115.34 41.4254 114.824 41.5655 114.742 42.1706C114.673 42.6725 115.077 43.0508 115.565 43.1617ZM115.752 40.5069C115.752 40.5069 117.18 40.777 117.712 40.926L116.651 46.4061L115.661 46.1794L116.096 44.103L114.226 45.9119L112.964 45.7476L114.852 43.8877C114.087 43.554 113.631 42.8088 113.762 41.9477C113.911 40.9452 114.95 40.3363 115.752 40.5069ZM109.666 43.0865L109.019 41.391L108.494 43.1005C108.855 43.0827 109.343 43.0737 109.666 43.0865ZM109.399 39.9528L111.928 45.6469L110.775 45.5743L110.115 44.1005C109.462 44.072 108.807 44.0835 108.155 44.1349L107.603 45.6202C107.261 45.6354 106.893 45.6647 106.498 45.7055L108.577 39.9656C108.843 39.9567 109.119 39.9516 109.399 39.9528ZM98.4447 47.7093L97.5422 48.0851L96.6547 45.9641C96.0513 46.2176 95.478 46.4991 94.9184 46.7921L95.8735 48.8889L95.011 49.3474L92.6001 44.2928L93.574 43.7909L94.4891 45.8291C95.1087 45.5017 95.6908 45.2215 96.2391 44.9909L95.4354 42.8954C95.7947 42.7375 96.1289 42.5973 96.4368 42.4725L98.4447 47.7093ZM99.4699 41.4114L100.488 41.1222L101.041 43.2929C101.618 43.1336 102.285 42.9744 102.974 42.8381L102.544 40.6471C102.895 40.5757 103.253 40.5082 103.617 40.4471L104.548 45.9743C104.236 46.0253 103.915 46.0851 103.585 46.1552L103.178 43.8814C102.517 44.0138 101.888 44.168 101.294 44.3272L101.812 46.5755C101.465 46.6673 101.146 46.759 100.853 46.8507L99.4699 41.4114ZM93.0245 50.5767C92.2385 51.0964 91.4794 51.6567 90.75 52.2556L87.4915 47.7169C88.2728 47.075 89.0867 46.4755 89.93 45.9208L90.4633 46.773C89.8787 47.1768 89.2829 47.5691 88.881 47.9156L89.5858 48.9271C90.0339 48.5436 90.5484 48.2048 91.0967 47.8392L91.665 48.7258C91.0692 49.1232 90.5847 49.4583 90.2067 49.7754L90.9214 50.8149C91.3095 50.5092 91.8353 50.1372 92.4949 49.6927L93.0245 50.5767ZM87.7018 55.1027L87.0184 55.8848L83.0727 51.9321L83.8851 51.0302C84.2932 50.5792 84.7614 50.2659 85.3072 50.1551C85.744 50.0455 86.2335 50.1551 86.6704 50.5436C87.6518 51.597 87.0885 52.6467 86.6891 53.0964L86.2197 53.6263L87.7018 55.1027ZM85.525 52.9295L85.9068 52.5397C86.2385 52.1996 86.3274 51.6353 85.9781 51.3155C85.6314 50.9983 85.1131 51.1525 84.7977 51.5015L84.4697 51.8646L85.525 52.9295ZM86.087 56.9803L85.4161 57.8669L83.7812 57.5905L82.746 59.2541L83.6298 60.5955L83.0727 61.584L79.584 56.551L80.0196 55.8848L86.087 56.9803ZM82.1451 58.3663L82.7923 57.3943L81.001 56.9931L82.1451 58.3663ZM82.5182 89.7907L82.9738 90.6773L78.1181 93.2671C77.4672 92.0888 76.805 90.5359 76.3143 89.2736L81.4128 87.1526L81.7771 88.0927L77.6111 89.8417C77.8177 90.4722 78.2107 91.3805 78.535 91.955L82.5182 89.7907ZM80.3751 83.8801C80.504 84.3794 80.5954 84.7132 80.648 84.8852L75.3103 86.2647C75.2113 85.918 75.1191 85.5694 75.0337 85.2189L78.8754 84.2699L74.5305 82.9311C74.4583 82.5573 74.3948 82.1819 74.3402 81.805L79.7529 80.7388C79.7968 81.0305 79.8456 81.3311 79.8982 81.6381L75.9863 82.4394L80.3751 83.8801ZM80.6004 64.5177L80.7907 64.054C80.9772 63.6018 81.0185 63.0476 80.4853 62.8336C80.0021 62.64 79.624 63.0986 79.455 63.5686L79.3111 63.9674L80.6004 64.5177ZM80.9346 61.9177C81.9298 62.2833 82.0588 63.5712 81.677 64.575L81.1787 65.8807L76.0589 63.7763L76.4057 62.84C76.6786 62.0642 77.4159 60.9522 78.5813 61.3483C79.0194 61.4974 79.2785 61.8706 79.3661 62.2489C79.5659 62.0418 79.8217 61.8998 80.1009 61.8408C80.3802 61.7819 80.6704 61.8086 80.9346 61.9177ZM78.3935 63.6081L78.5087 63.2757C78.6339 62.9139 78.6852 62.4375 78.2508 62.2782C77.9116 62.1534 77.6199 62.4642 77.5285 62.6948C77.5223 62.6973 77.3445 63.1572 77.3445 63.1572L78.3935 63.6081ZM79.1045 70.292C79.3073 69.2576 78.575 68.2793 77.6449 68.0806C76.5171 67.8411 75.6233 68.4653 75.4318 69.5455C75.2452 70.6028 75.93 71.5276 76.9239 71.734C78.013 71.9607 78.8842 71.4257 79.1045 70.292ZM77.7964 67.0743C79.3774 67.4373 80.3188 68.8959 80.0308 70.4576C79.7417 72.0308 78.3347 73.0753 76.7086 72.7824C75.1489 72.5021 74.175 70.9302 74.4554 69.343C74.7345 67.7736 76.268 66.724 77.7964 67.0743ZM78.4386 77.2816V76.837C78.4386 76.3389 78.3297 75.7835 77.7301 75.7835C77.1843 75.7835 76.9827 76.3695 77.0103 76.8829L77.0328 77.3287L78.4386 77.2816ZM77.715 74.7823C78.903 74.7721 79.4387 75.6816 79.4387 76.902L79.4938 78.2892L73.9822 78.4548L73.9309 77.4421C73.8846 76.5351 74.0373 75.2549 75.2866 75.1696C75.7335 75.139 76.2016 75.3963 76.3669 75.7275C76.5384 75.1109 77.0766 74.7874 77.715 74.7823ZM76.0952 77.3376L76.0902 77.1657C76.0764 76.7224 75.935 76.237 75.4443 76.237C74.8985 76.237 74.8522 76.7759 74.8697 77.2217L74.876 77.3924L76.0952 77.3376ZM145.071 74.7046L145.1 75.8511L142.992 75.8714L142.963 77.8102L145.061 77.9542L144.998 79.0318L139.587 78.6459L139.644 77.6485L141.919 77.758L141.948 75.8511L139.68 75.8816L139.67 74.8485L145.071 74.7046ZM143.142 69.9047L141.411 69.6449L141.617 70.8461L143.142 69.9047ZM144.449 69.2385L144.613 70.0143L139.542 73.4524L139.435 72.3429L140.743 71.4002L140.425 69.4564L138.889 69.1264L138.615 68.073L144.449 69.2385ZM143.1 64.1966L138.056 66.2679L137.731 65.3609L141.876 63.5062C141.638 62.8638 141.378 62.2303 141.096 61.6069L137.002 63.5584L136.553 62.5992L141.47 60.2108C142.13 61.5865 142.702 63.0145 143.1 64.1966ZM140.696 91.6849L140.917 91.2034C141.13 90.7347 141.255 90.1844 140.594 89.871C140.048 89.6124 139.645 90.1767 139.452 90.5971L139.288 90.9538L140.696 91.6849ZM141.024 88.9334C142.222 89.4379 142.164 90.671 141.73 91.5805L141.063 92.9779L136.188 90.5372L136.664 89.6124L138.517 90.5971L137.278 88.2392L137.747 87.0367L139.045 89.5245C139.291 88.9513 140.232 88.5997 141.024 88.9334ZM139.267 56.3077L139.701 57.0109L135.792 61.128L135.252 60.1904L138.039 57.4223L134.27 58.6784L133.952 58.2159L135.968 54.4823L132.813 56.723L132.077 55.8466L136.892 53.0339L137.387 53.6505L135.348 57.4236L139.267 56.3077ZM128.622 45.6151L125.48 46.6622L126.134 50.6009L124.99 49.8799L124.552 46.6074L123.334 48.9436L122.478 48.508L124.92 43.5209C125.211 43.6572 125.517 43.8126 125.836 43.982L124.767 46.052L127.571 44.9552L128.622 45.6151ZM144.543 82.6152L144.354 83.6495L140.526 82.7171L143.81 85.9144L143.477 87.0405L138.242 85.624L138.536 84.6087L142.269 85.6571L139.037 82.5438L139.244 81.4114L144.543 82.6152ZM105.461 106.588L104.747 112.082L103.686 111.931L104.379 107.483L102.874 107.163L102.368 109.582C102.041 111.081 101.119 111.538 100.039 111.265L100.241 110.284C101.008 110.376 101.222 110.358 101.44 109.194L102.099 105.921C103.204 106.199 104.272 106.435 105.461 106.588ZM97.3356 104.231L98.0329 104.533L98.0642 110.491C97.7163 110.37 97.3703 110.244 97.0264 110.112L97.0452 108.622L95.1976 107.795L94.2024 108.889C93.8567 108.728 93.516 108.556 93.1809 108.374L97.3356 104.231ZM97.1003 107.567L97.1053 105.742L95.851 107.018L97.1003 107.567ZM110.547 106.853L110.571 107.888L109.299 107.902L109.249 112.403L108.197 112.393L108.345 107.878C107.793 107.853 107.389 107.83 107.135 107.807L107.202 106.774C108.293 106.864 109.429 106.884 110.547 106.853ZM119.397 105.19L120.301 104.849L121.121 107.124L121.876 104.197L122.991 103.651L121.937 107.013L125.057 108.771L123.9 109.325L121.339 107.79L122.167 110.05L121.182 110.417L119.397 105.19ZM115.886 106.19C116.355 106.087 116.702 106.006 116.922 105.947L118.044 111.363L117.039 111.6L116.266 107.625L114.727 112.035L113.501 112.179L112.745 106.701L113.74 106.575L114.359 110.674L115.886 106.19ZM128.634 103.822L127.216 102.713L127.606 104.548C127.947 104.339 128.289 104.097 128.634 103.822ZM131.605 104.578L130.779 105.218L129.514 104.46C128.798 104.96 128.242 105.328 127.844 105.563L128.147 107.053L127.221 107.608L126.143 101.811L126.83 101.328L131.605 104.578ZM93.4776 102.156L92.9556 103.036L91.4121 101.974L90.8125 102.797L90.9765 102.909C91.978 103.578 92.5025 104.685 91.7389 105.738C91.302 106.348 90.7575 106.514 90.2117 106.403C89.782 106.267 89.3769 106.061 89.0125 105.793L88.0148 105.059L91.2219 100.529C92.0856 101.206 92.8367 101.748 93.4776 102.156ZM90.2129 105.349C90.4858 105.404 90.7587 105.404 90.9214 105.127C91.3571 104.571 90.7575 103.962 90.3757 103.741L90.2455 103.646L89.3943 104.849C89.3955 104.849 89.94 105.293 90.2129 105.349ZM131.356 47.8239C132.935 48.187 133.879 49.6442 133.59 51.2072C133.302 52.7804 131.894 53.8237 130.268 53.532C128.708 53.2518 127.733 51.6786 128.013 50.0926C128.291 48.5233 129.827 47.4723 131.356 47.8239ZM132.662 51.0417C132.865 50.0073 132.132 49.029 131.203 48.8315C130.076 48.592 129.181 49.215 128.99 50.2952C128.802 51.3537 129.488 52.2773 130.481 52.4836C131.572 52.7104 132.443 52.1741 132.662 51.0417ZM109.457 48.215C94.3201 48.229 82.0362 60.8057 82.0362 76.1721C82.0362 91.5919 94.3551 104.185 109.454 104.185C124.608 104.128 136.926 91.5919 136.926 76.1721C136.927 60.8057 124.607 48.201 109.457 48.215Z" fill="black"/>
<path fill-rule="evenodd" clip-rule="evenodd" d="M109.455 103.628C94.6284 103.628 82.5273 91.3702 82.5273 76.1707C82.5273 61.0833 94.6284 48.769 109.455 48.769C124.336 48.769 136.438 61.0833 136.438 76.1707C136.438 91.3142 124.336 103.628 109.455 103.628Z" fill="#C6A72A"/>
<path fill-rule="evenodd" clip-rule="evenodd" d="M109.509 50.6558C95.7734 50.6558 84.4897 62.1382 84.4897 76.1721C84.4897 90.2074 95.7734 101.689 109.509 101.689C123.299 101.689 134.583 90.2061 134.583 76.1721C134.583 62.1382 123.299 50.6558 109.509 50.6558Z" fill="#234B8D"/>
<path fill-rule="evenodd" clip-rule="evenodd" d="M91.7402 89.3744C94.6832 86.9337 96.5909 85.991 100.297 85.991C104.277 85.991 109.292 88.6534 113.326 88.7081C115.561 88.7081 118.231 88.2088 120.683 86.7133C118.885 88.6534 116.05 89.8189 113.162 89.8189C109.128 89.8189 103.132 87.1005 99.1521 87.0445C96.8087 86.9884 95.0099 87.8203 91.7402 89.3744ZM94.3552 79.7785C96.9176 77.3926 99.3161 76.4499 102.968 76.4499C107.002 76.4499 112.016 79.0575 116.05 79.1123C118.395 79.1123 121.285 78.2257 124.172 76.2831C121.883 79.1123 118.829 80.2218 115.886 80.2218C111.854 80.2218 105.912 77.3378 101.987 77.3378C99.1521 77.3926 97.0265 78.2804 94.3552 79.7785ZM97.4634 69.7928C99.4801 67.9623 102.096 66.798 105.749 66.798C109.782 66.798 114.797 69.4603 118.887 69.4603C121.121 69.5151 124.283 68.4069 126.898 66.4082C124.664 69.3482 121.555 70.6246 118.723 70.6246C114.578 70.6246 108.692 67.7394 104.659 67.7394C101.932 67.7394 99.6428 68.7393 97.4634 69.7928Z" fill="#C6A72A"/>
<path fill-rule="evenodd" clip-rule="evenodd" d="M128.534 62.9142C125.481 64.5231 123.191 64.3015 121.011 64.1906C116.214 63.9677 111.691 61.1946 106.948 61.2493C102.587 61.3614 97.5722 64.411 96.1001 69.1828C98.7714 67.2415 102.314 65.4097 105.53 65.3002C110.327 65.1333 114.796 67.9065 119.649 68.0733C122.699 68.1294 127.28 65.9664 128.534 62.9142ZM90.5947 88.3759C92.0656 83.5505 97.1353 80.4984 101.497 80.3876C106.185 80.3328 110.709 83.162 115.45 83.3276C118.177 83.4397 120.737 82.9951 123.408 81.4423C121.882 84.8257 117.577 87.3224 114.086 87.2663C109.345 87.1007 104.821 84.2703 100.133 84.4371C96.8086 84.548 93.2648 86.3785 90.5947 88.3759ZM93.3737 78.7787C94.792 74.0082 99.8617 70.9013 104.168 70.7904C108.965 70.7344 113.434 73.5649 118.284 73.7865C120.957 73.8973 123.682 73.398 126.298 71.6783C125.044 75.1177 120.301 77.7252 116.812 77.6692C112.072 77.5584 107.546 74.7292 102.805 74.896C99.5338 75.0081 95.9912 76.8374 93.3737 78.7787Z" fill="white"/>
<path fill-rule="evenodd" clip-rule="evenodd" d="M126.788 33.7927H91.8477V31.3521H126.788V33.7927Z" fill="black"/>
<path fill-rule="evenodd" clip-rule="evenodd" d="M92.3936 33.2371V31.9072H126.243V33.2371H92.3936Z" fill="#C6A72A"/>
</svg>
