<svg width="89" height="121" viewBox="0 0 89 121" fill="none" xmlns="http://www.w3.org/2000/svg">
<g clip-path="url(#clip0_219_411)">
<path d="M0.625 0.941895V120.943H88.6207H88.6246V0.941895H0.625ZM3.3137 3.66076H85.936V118.222H3.3137V3.66076Z" fill="black"/>
<path d="M6.00439 6.37964V19.1049C23.2302 16.7228 43.7625 19.9739 57.0128 33.2574C70.2552 46.5366 73.4731 67.2214 71.0989 84.4913H83.2473V6.37964H6.00439ZM71.0989 84.4913C71.3117 67.8194 62.5193 52.9591 50.0466 40.4632C37.5692 27.9551 22.6363 18.8915 6.00439 19.1049V84.4913H71.0989ZM11.4015 40.7741H26.2958V45.9527H21.5511V58.2933H16.154V45.9527H11.4015V40.7741ZM23.5243 50.8802H31.5155L33.3467 60.46H33.4453L35.1957 50.8802H43.1593V68.3953H38.3358V54.6356H38.2077L35.4303 68.3953H30.9498L28.2512 54.6356H28.1093V68.3953H23.5243V50.8802ZM45.2822 60.9822H50.6734V67.8731H50.7582L54.0796 60.9822H60.21L55.4634 69.2006L60.6536 78.5034H54.2216L50.7582 71.0743H50.6734V78.5034H45.2822V60.9822Z" fill="black"/>
<path d="M24.2265 111.195H20.5621V102.862C19.7174 103.289 18.0301 103.502 15.5011 103.502C13.8325 103.502 12.5206 103.285 11.5666 102.849C10.6125 102.414 9.93542 101.749 9.53625 100.855C9.1361 99.9618 8.93701 98.7947 8.93701 97.3545V91.9277H12.6005V97.4611C12.6005 98.1598 12.701 98.7169 12.9021 99.1315C13.1031 99.5461 13.455 99.8501 13.9576 100.045C14.4603 100.24 15.1699 100.337 16.0845 100.337C17.3017 100.337 18.2164 100.309 18.8294 100.252C19.4424 100.196 20.02 100.054 20.5621 99.8282V91.9277H24.2265V111.195Z" fill="black"/>
<path d="M32.7708 111.195V95.1439H27.2495V91.9277H42.1054V95.1439H36.4599V111.195H32.7708Z" fill="black"/>
<path d="M61.3862 91.9277V111.195H57.7228V95.0931H48.8485V111.195H45.1841V91.9277H61.3862Z" fill="black"/>
<path d="M70.1178 100.03H73.0677C74.206 100.03 75.0408 99.8202 75.573 99.4016C76.1053 98.983 76.3714 98.3083 76.3714 97.3794C76.3714 96.6718 76.2511 96.1197 76.0106 95.724C75.7711 95.3283 75.37 95.0473 74.8092 94.8798C74.2484 94.7124 73.454 94.6287 72.428 94.6287C71.5834 94.6287 70.9112 94.6745 70.4125 94.7672C69.9138 94.8589 69.5185 95.0144 69.2258 95.2346C68.9341 95.4549 68.7281 95.7509 68.6079 96.1236C68.4886 96.4954 68.4216 96.9838 68.4098 97.5867H64.9257C65.0371 96.029 65.3475 94.831 65.8571 93.9908C66.3666 93.1516 67.1393 92.5636 68.1772 92.2267C69.214 91.8899 70.6411 91.7214 72.4586 91.7214C74.9511 91.7214 76.8031 92.1231 78.0134 92.9264C79.2247 93.7297 79.8298 94.9755 79.8298 96.6618C79.8298 98.0183 79.6337 99.0299 79.2404 99.6976C78.8472 100.365 78.1454 100.862 77.1352 101.189V101.288C77.9552 101.515 78.5949 101.81 79.0542 102.171C79.5134 102.534 79.8387 102.999 80.0289 103.566C80.2191 104.134 80.3147 104.84 80.3147 105.686C80.3147 107.039 80.0861 108.127 79.6288 108.953C79.1705 109.778 78.3702 110.392 77.2249 110.796C76.0806 111.2 74.481 111.402 72.428 111.402C71.1438 111.402 70.0399 111.327 69.1144 111.176C68.189 111.025 67.4044 110.752 66.7609 110.356C66.1173 109.959 65.6255 109.392 65.2854 108.653C64.9464 107.912 64.7769 106.966 64.7769 105.814V105.016H68.2107C68.2314 105.997 68.3191 106.712 68.4748 107.161C68.6305 107.61 69.0021 107.944 69.5895 108.164C70.1769 108.384 71.1231 108.495 72.428 108.495C73.5703 108.495 74.4564 108.409 75.0852 108.24C75.715 108.071 76.1674 107.785 76.4423 107.385C76.7183 106.985 76.8553 106.418 76.8553 105.685C76.8553 104.641 76.5931 103.896 76.0698 103.449C75.5464 103.004 74.7402 102.78 73.6511 102.78H70.1178V100.03Z" fill="black"/>
</g>
<defs>
<clipPath id="clip0_219_411">
<rect width="88" height="120" fill="white" transform="translate(0.625 0.941895)"/>
</clipPath>
</defs>
</svg>
