<svg width="120" height="120" viewBox="0 0 120 120" fill="none" xmlns="http://www.w3.org/2000/svg">
<path fill-rule="evenodd" clip-rule="evenodd" d="M12.6969 105.577H1.87988L26.2512 13.0791L58.6756 43.028L93.7585 13.0791L118.122 105.577H107.308L88.3516 32.1334L58.6756 56.6666L31.6536 32.1334L12.6969 105.577Z" fill="#25A4FF"/>
<path fill-rule="evenodd" clip-rule="evenodd" d="M34.4023 105.577L42.4621 67.3893L53.2725 75.6276L50.5242 89.1875L74.8899 67.3893L77.5428 78.2884L66.738 89.1875L85.6947 105.577H72.1382L58.676 94.6775L45.2083 105.577H34.4023Z" fill="#25A4FF"/>
<path fill-rule="evenodd" clip-rule="evenodd" d="M28.9052 105.577H18.0938L34.4019 40.2764L58.6756 62.0734L85.6942 40.2764L101.908 105.577H91.0966L77.5424 59.3273L58.6756 75.6277L39.7156 62.0734L28.9052 105.577Z" fill="#25A4FF"/>
</svg>
