<svg width="200" height="120" viewBox="0 0 200 120" fill="none" xmlns="http://www.w3.org/2000/svg">
<g clip-path="url(#clip0_55_150)">
<path d="M42.2637 49.25L60.3767 60L72.4504 17L42.2637 49.25Z" fill="black"/>
<path d="M60.3767 60.001L42.2637 70.751L72.4504 103L60.3767 60.001Z" fill="#6C2B19"/>
<path d="M42.2637 70.75L60.3767 60L42.2637 49.25V70.75Z" fill="white"/>
<path d="M72.4502 102.999L0 60L42.2634 70.75L72.4502 102.999Z" fill="#00A7E7"/>
<path d="M42.2634 49.25L0 60L72.4502 17L42.2634 49.25Z" fill="#C7017F"/>
<path d="M72.4502 102.999L60.3765 60L72.4502 17V102.999Z" fill="#E30613"/>
<path d="M0 60L42.2634 70.75V49.25L0 60Z" fill="#0D3880"/>
<path d="M85.6358 55.4867L89.318 67.9104H92.1512L95.8335 55.4867V67.9104H98.5723V52.0887H94.4178L90.7346 64.3193L87.1468 52.0887H82.898V67.9104H85.6358V55.4867ZM111.602 46.1677C111.886 46.4589 112.263 46.6521 112.735 46.6521H117.645C118.023 46.6521 118.495 46.4579 118.779 46.1677L120.762 44.1289L119.251 42.2843L117.551 43.9337C117.457 44.0308 117.362 44.0308 117.173 44.0308H113.301C113.207 44.0308 113.112 44.0308 113.018 43.9337L112.074 42.9639C111.98 42.8668 111.98 42.7697 111.98 42.6726V34.907C111.98 34.8099 111.98 34.7128 112.074 34.6157L113.018 33.6459C113.112 33.5488 113.207 33.5488 113.301 33.5488H116.889C117.078 33.5488 117.172 33.5488 117.267 33.6459L118.967 35.2953L120.761 33.3546L118.778 31.3159C118.494 31.0246 118.022 30.8304 117.644 30.8304H112.735C112.262 30.8304 111.885 31.0246 111.601 31.3159L109.712 33.2565C109.335 33.6449 109.146 34.0332 109.146 34.4215V43.06C109.146 43.4483 109.335 43.8366 109.712 44.225L111.602 46.1677ZM107.353 75.7731L105.465 73.8315C105.182 73.5402 104.804 73.346 104.332 73.346H98.5723C98.1945 73.346 97.8167 73.5402 97.439 73.8315L95.5501 75.7731C95.2668 76.1615 95.0789 76.5498 95.0789 76.9381V85.5766C95.0789 85.9649 95.2678 86.3532 95.5501 86.7406L97.439 88.6822C97.8167 88.9735 98.1945 89.1677 98.5723 89.1677H104.332C104.804 89.1677 105.182 88.9735 105.465 88.6822L107.353 86.7406C107.731 86.3522 107.92 85.9639 107.92 85.5766V76.9392C107.92 76.5498 107.731 76.1615 107.353 75.7731ZM104.993 85.0922C104.993 85.1892 104.993 85.2853 104.899 85.3824L103.955 86.3532C103.861 86.4513 103.767 86.4513 103.672 86.4513H99.3278C99.1389 86.4513 99.0445 86.4513 98.95 86.3532L98.1 85.3824C98.0056 85.2853 97.9112 85.1892 97.9112 85.0922V77.4225C97.9112 77.3255 98.0056 77.2294 98.1 77.1323L98.95 76.1615C99.0445 76.0634 99.1389 76.0634 99.3278 76.0634H103.672C103.767 76.0634 103.861 76.0634 103.955 76.1615L104.899 77.1323C104.993 77.2294 104.993 77.3255 104.993 77.4225V85.0922ZM129.165 89.1687H131.903V76.0634H138.419V89.1687H141.157V73.346H129.165V89.1687ZM155.415 75.7731L153.526 73.8315C153.148 73.5402 152.771 73.346 152.394 73.346H147.39C147.011 73.346 146.634 73.5402 146.256 73.8315L144.367 75.7731C144.085 76.1615 143.896 76.5498 143.896 76.9381V89.1687H146.635V84.3145H153.149V89.1687H155.888V76.9392C155.888 76.5498 155.699 76.1615 155.415 75.7731ZM153.149 81.7913H146.635V77.4225C146.635 77.3255 146.729 77.2294 146.823 77.1323L147.672 76.1615C147.767 76.0634 147.861 76.0634 148.051 76.0634H151.733C151.922 76.0634 152.016 76.0634 152.111 76.1615L152.96 77.1323C153.055 77.2294 153.148 77.3255 153.148 77.4225V81.7913H153.149ZM139.646 58.5923H133.036V52.0887H130.299V67.9104H133.036V61.3107H139.646V67.9104H142.384V52.0887H139.646V58.5923ZM176.473 85.5776V73.346H173.735V89.1687H177.511L182.988 76.9381V89.1687H185.726V73.346H181.948L176.473 85.5776ZM156.644 54.5158L154.755 52.5752C154.472 52.2839 154.094 52.0898 153.622 52.0898H148.713C148.24 52.0898 147.863 52.2839 147.579 52.5752L145.691 54.5158C145.314 54.9042 145.125 55.2925 145.125 55.6808V67.9104H147.863V63.0572H154.378V67.9104H157.116V55.6808C157.115 55.2925 157.021 54.9032 156.644 54.5158ZM154.377 60.533H147.862V56.1653C147.862 56.0682 147.862 55.9711 147.957 55.874L148.901 54.9032C148.995 54.8061 149.089 54.8061 149.184 54.8061H153.056C153.15 54.8061 153.245 54.8061 153.339 54.9032L154.283 55.874C154.378 55.9711 154.378 56.0682 154.378 56.1653L154.377 60.533ZM94.0391 32.8692L92.528 31.3159C92.2447 31.0246 91.8669 30.8304 91.4892 30.8304H82.897V46.6521H85.6348V41.3135H91.4901C91.8679 41.3135 92.2457 41.1193 92.529 40.828L94.0401 39.2747C94.4178 38.8864 94.6067 38.5951 94.6067 38.1097V34.0332C94.6057 33.5488 94.4178 33.1605 94.0391 32.8692ZM99.5157 40.6349C99.799 41.1203 100.271 41.1203 100.366 41.1203H100.743L98.0046 46.6531H101.027L108.581 30.8315H105.559L102.066 38.403H101.782C101.593 38.403 101.499 38.2088 101.405 38.0146L98.3834 30.8315H94.9835L99.5157 40.6349ZM126.616 65.192V52.0887H118.685C118.213 52.0887 117.835 52.2829 117.552 52.5742L115.664 54.5148C115.286 54.9032 115.192 55.2915 115.192 55.6798V65.192H113.398V67.9104H128.222V65.192H126.616ZM117.929 65.192V56.2623C117.929 56.1653 117.929 56.0682 118.023 55.9711L119.157 54.8061C119.251 54.709 119.345 54.709 119.44 54.709H123.878V65.192H117.929ZM103.954 55.4867L104.521 54.9042C104.616 54.8071 104.71 54.8071 104.804 54.8071H111.508V52.0887H104.237C103.859 52.0887 103.481 52.2829 103.198 52.5742L101.687 54.1275C101.309 54.4188 101.12 54.8071 101.12 55.2925V64.7076C101.12 65.192 101.309 65.5814 101.687 65.8716L103.198 67.4249C103.481 67.7162 103.859 67.9094 104.237 67.9094H111.508V65.191H104.804C104.71 65.191 104.616 65.191 104.521 65.0939L103.954 64.5114C103.86 64.4143 103.86 64.3183 103.86 64.2212V61.2136H111.508V58.5923H103.86V55.7769C103.86 55.6808 103.86 55.5828 103.954 55.4867ZM167.974 79.8496H161.364V73.345H158.626V89.1677H161.364V82.567H167.974V89.1677H170.712V73.346H167.974V79.8496ZM85.6358 33.5488H90.8291C91.0179 33.5488 91.1124 33.5488 91.2068 33.6459L91.7735 34.2284C91.8679 34.3255 91.8679 34.4225 91.8679 34.5196V37.6253C91.8679 37.7224 91.8679 37.8195 91.7735 37.9165L91.2068 38.499C91.1124 38.5961 91.0179 38.5961 90.8291 38.5961H85.6358V33.5488ZM85.6358 82.7611H86.4857C86.6746 82.7611 86.7691 82.8582 86.8635 82.9553L91.3013 89.1687H94.9835L89.1291 81.3059L94.7002 73.346H91.3013L87.0524 79.5594C86.7691 79.9477 86.6746 80.1409 86.4857 80.1409H85.6358V73.346H82.898V89.1687H85.6358V82.7611ZM191.58 73.346C191.202 73.346 190.825 73.5402 190.541 73.8315L188.936 75.3838C188.652 75.676 188.464 76.0634 188.464 76.5488V80.6253C188.464 81.1107 188.652 81.402 188.936 81.7903L190.541 83.3426C190.825 83.6339 191.107 83.8281 191.486 83.8281H191.863L187.803 89.1666H191.014L194.791 84.0212C194.886 83.9241 194.979 83.8281 195.169 83.8281H197.246V89.1666H199.984V73.346H191.58ZM197.246 81.403H192.336C192.148 81.403 192.053 81.403 191.958 81.3059L191.297 80.6263C191.202 80.5292 191.202 80.4332 191.202 80.3361V77.0352C191.202 76.9381 191.202 76.8411 191.297 76.743L191.863 76.1615C191.958 76.0634 192.052 76.0634 192.241 76.0634H197.246V81.403ZM113.208 76.743L116.89 89.1687H119.722L123.405 76.743V89.1687H126.143V73.346H121.989L118.307 85.5776L114.719 73.346H110.47V89.1687H113.209V76.743H113.208ZM160.326 33.2575L158.437 31.3169C158.154 31.0256 157.776 30.8315 157.305 30.8315H152.395C151.924 30.8315 151.545 31.0256 151.263 31.3169L149.374 33.2575C148.995 33.6459 148.807 34.0342 148.807 34.4225V46.6531H151.545V41.7999H158.06V46.6531H160.798V34.4225C160.797 34.0342 160.703 33.6459 160.326 33.2575ZM158.059 39.2757H151.544V34.908C151.544 34.8109 151.544 34.7138 151.638 34.6167L152.584 33.6469C152.678 33.5498 152.772 33.5498 152.866 33.5498H156.738C156.833 33.5498 156.926 33.5498 157.022 33.6469L157.966 34.6167C158.06 34.7138 158.06 34.8109 158.06 34.908V39.2757H158.059ZM162.686 52.0887C162.308 52.0887 161.931 52.2829 161.647 52.5742L160.042 54.1275C159.758 54.4188 159.569 54.8071 159.569 55.2925V59.369C159.569 59.8534 159.758 60.1457 160.042 60.533L161.647 62.0874C161.931 62.3776 162.214 62.5718 162.592 62.5718H162.969L158.908 67.9094H162.119L165.897 62.7659C165.991 62.6678 166.085 62.5718 166.275 62.5718H168.353V67.9094H171.09V52.0887H162.686ZM168.353 60.1457H163.442C163.254 60.1457 163.159 60.1457 163.065 60.0486L162.404 59.369C162.308 59.2719 162.308 59.1749 162.308 59.0778V55.7769C162.308 55.6798 162.308 55.5828 162.404 55.4857L162.969 54.9032C163.065 54.8061 163.158 54.8061 163.347 54.8061H168.353V60.1457ZM166.369 30.8315C165.991 30.8315 165.613 31.0256 165.329 31.3169L163.725 32.8702C163.441 33.1615 163.253 33.5498 163.253 34.0352V38.1117C163.253 38.5971 163.441 38.8884 163.725 39.2767L165.329 40.8301C165.613 41.1213 165.896 41.3155 166.274 41.3155H166.652L162.592 46.6541H165.803L169.579 41.5097C169.675 41.4126 169.768 41.3155 169.957 41.3155H172.034V46.6541H174.773V30.8315H166.369ZM172.034 38.8884H167.125C166.936 38.8884 166.841 38.8884 166.746 38.7913L166.085 38.1117C165.991 38.0146 165.991 37.9176 165.991 37.8205V34.5206C165.991 34.4236 165.991 34.3265 166.085 34.2294L166.652 33.6469C166.746 33.5498 166.84 33.5498 167.03 33.5498H172.034V38.8884ZM138.419 40.2466H139.269C139.457 40.2466 139.552 40.3436 139.646 40.4407L144.085 46.6531H147.767L141.913 38.7913L147.484 30.8315H144.085L139.836 37.0438C139.553 37.4321 139.458 37.6263 139.27 37.6263H138.42V30.8315H135.682V46.6531H138.42L138.419 40.2466ZM124.822 46.1677C125.105 46.4589 125.483 46.6521 125.955 46.6521H130.865C131.242 46.6521 131.715 46.4579 131.999 46.1677L133.982 44.1289L132.471 42.2843L130.771 43.9337C130.676 44.0308 130.582 44.0308 130.393 44.0308H126.522C126.428 44.0308 126.333 44.0308 126.239 43.9337L125.294 42.9639C125.2 42.8668 125.2 42.7697 125.2 42.6726V34.907C125.2 34.8099 125.2 34.7128 125.294 34.6157L126.239 33.6459C126.333 33.5488 126.428 33.5488 126.522 33.5488H130.11C130.299 33.5488 130.393 33.5488 130.488 33.6459L132.187 35.2953L133.981 33.3546L131.998 31.3159C131.714 31.0246 131.241 30.8304 130.864 30.8304H125.954C125.482 30.8304 125.104 31.0246 124.821 31.3159L122.933 33.2565C122.555 33.6449 122.367 34.0332 122.367 34.4215V43.06C122.367 43.4483 122.555 43.8366 122.933 44.225L124.822 46.1677Z" fill="black"/>
</g>
<defs>
<clipPath id="clip0_55_150">
<rect width="200" height="86" fill="white" transform="translate(0 17)"/>
</clipPath>
</defs>
</svg>
